<svg xmlns="http://www.w3.org/2000/svg" width="40.269" height="36.03" viewBox="0 0 40.269 36.03">
  <path id="photo_camera_24dp_FILL0_wght300_GRAD0_opsz24" d="M120.135-791.143a8.416,8.416,0,0,0,6.185-2.537,8.416,8.416,0,0,0,2.537-6.185,8.416,8.416,0,0,0-2.537-6.185,8.417,8.417,0,0,0-6.185-2.537,8.416,8.416,0,0,0-6.185,2.537,8.416,8.416,0,0,0-2.537,6.185,8.416,8.416,0,0,0,2.537,6.185A8.416,8.416,0,0,0,120.135-791.143Zm0-3.179a5.359,5.359,0,0,1-3.945-1.6,5.359,5.359,0,0,1-1.6-3.945,5.359,5.359,0,0,1,1.6-3.945,5.359,5.359,0,0,1,3.945-1.6,5.359,5.359,0,0,1,3.945,1.6,5.359,5.359,0,0,1,1.6,3.945,5.359,5.359,0,0,1-1.6,3.945A5.359,5.359,0,0,1,120.135-794.322Zm-16.3,10.352a3.7,3.7,0,0,1-2.719-1.113A3.7,3.7,0,0,1,100-787.8V-811.93a3.7,3.7,0,0,1,1.113-2.719,3.7,3.7,0,0,1,2.719-1.113H110.3l2.772-3a3.74,3.74,0,0,1,1.262-.9A3.782,3.782,0,0,1,115.9-820h8.478a3.782,3.782,0,0,1,1.559.33,3.74,3.74,0,0,1,1.262.9l2.772,3h6.472a3.7,3.7,0,0,1,2.719,1.113,3.7,3.7,0,0,1,1.113,2.719V-787.8a3.7,3.7,0,0,1-1.113,2.719,3.7,3.7,0,0,1-2.719,1.113Zm0-3.179h32.606a.635.635,0,0,0,.469-.183.635.635,0,0,0,.183-.469V-811.93a.635.635,0,0,0-.183-.469.635.635,0,0,0-.469-.183h-7.891l-3.889-4.239h-9.048l-3.889,4.239h-7.891a.635.635,0,0,0-.469.183.635.635,0,0,0-.183.469V-787.8a.635.635,0,0,0,.183.469A.635.635,0,0,0,103.831-787.149ZM120.135-799.865Z" transform="translate(-100 820)" fill="#fff"/>
</svg>
