<svg xmlns="http://www.w3.org/2000/svg" width="25.044" height="16.279" viewBox="0 0 25.044 16.279">
  <path id="community_ico2" d="M80.625-743.721a.6.6,0,0,1-.446-.18.6.6,0,0,1-.179-.445v-15.027a.6.6,0,0,1,.18-.446.606.606,0,0,1,.447-.18.6.6,0,0,1,.446.18.606.606,0,0,1,.179.446v10.644H91.9v-7.514a1.2,1.2,0,0,1,.374-.878,1.2,1.2,0,0,1,.878-.374h8.139a3.617,3.617,0,0,1,2.653,1.1,3.617,3.617,0,0,1,1.1,2.653v9.392a.6.6,0,0,1-.18.445.606.606,0,0,1-.447.18.6.6,0,0,1-.446-.18.6.6,0,0,1-.179-.445v-3.131H81.252v3.131a.6.6,0,0,1-.18.445A.606.606,0,0,1,80.625-743.721Zm5.633-7.368a2.547,2.547,0,0,1-1.875-.774,2.561,2.561,0,0,1-.771-1.878,2.549,2.549,0,0,1,.774-1.875,2.562,2.562,0,0,1,1.878-.77,2.548,2.548,0,0,1,1.875.774,2.562,2.562,0,0,1,.771,1.878,2.548,2.548,0,0,1-.773,1.876A2.563,2.563,0,0,1,86.258-751.09Zm6.89,2.36h10.644v-5.009a2.412,2.412,0,0,0-.736-1.769,2.412,2.412,0,0,0-1.769-.736H93.148Zm-6.887-3.612a1.346,1.346,0,0,0,.989-.408,1.346,1.346,0,0,0,.408-.988,1.346,1.346,0,0,0-.408-.989,1.346,1.346,0,0,0-.989-.408,1.346,1.346,0,0,0-.989.408,1.346,1.346,0,0,0-.408.989,1.346,1.346,0,0,0,.408.988A1.346,1.346,0,0,0,86.261-752.343ZM86.261-753.739Zm6.887-2.5v0Z" transform="translate(-80 760)" fill="#fff"/>
</svg>
