<svg xmlns="http://www.w3.org/2000/svg" width="25" height="22.061" viewBox="0 0 25 22.061">
  <path id="community_ico1" d="M62.953-819.17a1.106,1.106,0,0,1-.92-.452,1.148,1.148,0,0,1-.2-1.031,24.128,24.128,0,0,0,.629-3.746q.165-1.882.218-3.812a3.373,3.373,0,0,1-1.984-1.53,4.763,4.763,0,0,1-.7-2.522v-.33a1.422,1.422,0,0,1,.264-.849,1.55,1.55,0,0,1,.713-.548,28.024,28.024,0,0,0,5.728-2.945,41.1,41.1,0,0,0,5.062-4.01,1.066,1.066,0,0,1,.345-.218,1.106,1.106,0,0,1,.388-.066,1.106,1.106,0,0,1,.388.066,1.066,1.066,0,0,1,.345.218,41.107,41.107,0,0,0,5.062,4.01,28.026,28.026,0,0,0,5.728,2.945,1.55,1.55,0,0,1,.713.548,1.422,1.422,0,0,1,.264.849v.33a4.763,4.763,0,0,1-.695,2.522,3.373,3.373,0,0,1-1.984,1.53q.053,1.928.218,3.813a24.135,24.135,0,0,0,.629,3.746,1.148,1.148,0,0,1-.2,1.031,1.106,1.106,0,0,1-.92.452Zm-.279-14.284H82.326a31.787,31.787,0,0,1-5.184-2.852,39.933,39.933,0,0,1-4.642-3.687,39.933,39.933,0,0,1-4.642,3.687A31.785,31.785,0,0,1,62.674-833.454Zm12.8,4.165a2.03,2.03,0,0,0,1.734-.9,3.465,3.465,0,0,0,.647-2.077H73.1a3.464,3.464,0,0,0,.647,2.077A2.03,2.03,0,0,0,75.476-829.289Zm-5.952,0a2.03,2.03,0,0,0,1.734-.9,3.464,3.464,0,0,0,.647-2.077H67.143a3.464,3.464,0,0,0,.647,2.077A2.03,2.03,0,0,0,69.524-829.289Zm-5.952,0a2.03,2.03,0,0,0,1.734-.9,3.464,3.464,0,0,0,.647-2.077H61.19a3.464,3.464,0,0,0,.647,2.077A2.03,2.03,0,0,0,63.571-829.289Zm-.6,8.929h4.489q.314-2.016.474-4.012t.227-4.033a2.943,2.943,0,0,1-.94-.621,3.489,3.489,0,0,1-.674-.917,3.44,3.44,0,0,1-1.1,1.253,3.237,3.237,0,0,1-1.577.571q-.06,1.972-.231,3.908A23.716,23.716,0,0,1,62.972-820.36Zm5.687,0h7.683q-.307-1.935-.464-3.858t-.223-3.886a3.174,3.174,0,0,1-1.879-.477,3.218,3.218,0,0,1-1.275-1.447,3.217,3.217,0,0,1-1.275,1.447,3.173,3.173,0,0,1-1.879.477q-.066,1.961-.223,3.886T68.658-820.36Zm8.881,0h4.489a23.716,23.716,0,0,1-.666-3.851q-.172-1.938-.231-3.908a3.317,3.317,0,0,1-1.6-.58,3.008,3.008,0,0,1-1.078-1.29,3.039,3.039,0,0,1-.651.94,3.189,3.189,0,0,1-.963.644q.066,2.039.23,4.033T77.539-820.36Zm3.89-8.929a2.03,2.03,0,0,0,1.734-.9,3.464,3.464,0,0,0,.647-2.077H79.048a3.464,3.464,0,0,0,.647,2.077A2.03,2.03,0,0,0,81.429-829.289Z" transform="translate(-60 841.23)" fill="#fff"/>
</svg>
