<svg xmlns="http://www.w3.org/2000/svg" width="15.628" height="22.841" viewBox="0 0 15.628 22.841">
  <path id="community_ico3" d="M192.559-851.91v-7.49a.577.577,0,0,1,.173-.427.585.585,0,0,1,.429-.174.582.582,0,0,1,.428.174.58.58,0,0,1,.172.427v7.49h2.127v-7.49a.578.578,0,0,1,.173-.427.583.583,0,0,1,.429-.174.581.581,0,0,1,.428.174.579.579,0,0,1,.172.427v7.49a3.739,3.739,0,0,1-.968,2.61,3.9,3.9,0,0,1-2.362,1.279v10.259a.579.579,0,0,1-.173.428.581.581,0,0,1-.429.174.578.578,0,0,1-.428-.174.581.581,0,0,1-.172-.428v-10.259A3.9,3.9,0,0,1,190.2-849.3a3.74,3.74,0,0,1-.967-2.61v-7.49a.578.578,0,0,1,.173-.427.585.585,0,0,1,.429-.174.582.582,0,0,1,.428.174.58.58,0,0,1,.172.427v7.49Zm11.1,5.133h-1.985a.945.945,0,0,1-.7-.28.948.948,0,0,1-.276-.693v-6.841a6.554,6.554,0,0,1,1.074-3.918Q202.845-860,203.9-860a.865.865,0,0,1,.717.305,1.292,1.292,0,0,1,.245.83v21.1a.58.58,0,0,1-.173.428.58.58,0,0,1-.429.174.578.578,0,0,1-.428-.174.582.582,0,0,1-.172-.428Z" transform="translate(-189.23 860.001)" fill="#fff"/>
</svg>
