<svg xmlns="http://www.w3.org/2000/svg" width="18.955" height="23.017" viewBox="0 0 18.955 23.017">
  <path id="community_ico4" d="M203.749-819.69v1.874a.8.8,0,0,1-.244.59.808.808,0,0,1-.592.242.8.8,0,0,1-.589-.242.809.809,0,0,1-.241-.59v-2.411a3.734,3.734,0,0,1-1.372-1.219A3.454,3.454,0,0,1,200-823.6v-12.342a3.243,3.243,0,0,1,2.28-3.085,19.534,19.534,0,0,1,7.2-.977q5.094,0,7.286.939a3.213,3.213,0,0,1,2.192,3.123V-823.6a3.454,3.454,0,0,1-.711,2.15,3.735,3.735,0,0,1-1.372,1.219v2.411a.8.8,0,0,1-.244.59.808.808,0,0,1-.592.242.8.8,0,0,1-.589-.242.808.808,0,0,1-.241-.59v-1.874Zm5.744-16.873h0Zm5.4,8.749h0Zm-13.54-1.354H217.6v-6.041H201.354Zm3.391,6.249a1.443,1.443,0,0,0,1.068-.442,1.472,1.472,0,0,0,.436-1.074,1.441,1.441,0,0,0-.442-1.068,1.473,1.473,0,0,0-1.074-.436,1.442,1.442,0,0,0-1.068.442,1.474,1.474,0,0,0-.436,1.074,1.441,1.441,0,0,0,.442,1.067A1.471,1.471,0,0,0,204.745-822.92Zm9.478,0a1.443,1.443,0,0,0,1.068-.442,1.472,1.472,0,0,0,.436-1.074,1.441,1.441,0,0,0-.442-1.068,1.474,1.474,0,0,0-1.074-.436,1.442,1.442,0,0,0-1.068.442,1.474,1.474,0,0,0-.436,1.074,1.441,1.441,0,0,0,.442,1.067A1.471,1.471,0,0,0,214.223-822.92Zm-12.728-13.644h16q-.352-1.045-2.17-1.564a23.351,23.351,0,0,0-5.829-.519,22.865,22.865,0,0,0-5.8.528Q201.87-837.592,201.494-836.563Zm2.567,15.519h10.832a2.608,2.608,0,0,0,1.912-.795,2.61,2.61,0,0,0,.8-1.913v-4.062H201.354v4.062a2.609,2.609,0,0,0,.8,1.913A2.607,2.607,0,0,0,204.062-821.045Z" transform="translate(-200 840)" fill="#fff"/>
</svg>
