<svg xmlns="http://www.w3.org/2000/svg" width="17" height="12.698" viewBox="0 0 17 12.698">
  <path id="family_button" d="M215.012-677.444H200.622a.6.6,0,0,1-.444-.179.6.6,0,0,1-.178-.443.6.6,0,0,1,.178-.444.6.6,0,0,1,.444-.179h14.391l-4.644-4.644a.619.619,0,0,1-.19-.428.609.609,0,0,1,.19-.452.634.634,0,0,1,.444-.209.609.609,0,0,1,.444.2l5.45,5.45a.966.966,0,0,1,.229.332,1.017,1.017,0,0,1,.066.371,1,1,0,0,1-.066.37.957.957,0,0,1-.229.332l-5.45,5.45a.618.618,0,0,1-.432.19.6.6,0,0,1-.456-.2.639.639,0,0,1-.2-.44.6.6,0,0,1,.2-.44Z" transform="translate(-200 684.422)" fill="#666"/>
</svg>
