<svg xmlns="http://www.w3.org/2000/svg" xmlns:xlink="http://www.w3.org/1999/xlink" width="350" height="65.572" viewBox="0 0 350 65.572">
  <defs>
    <clipPath id="clip-path">
      <rect id="사각형_15" data-name="사각형 15" width="249.27" height="65.572" transform="translate(0 0)" fill="none"/>
    </clipPath>
  </defs>
  <g id="logo" transform="translate(-330 -17.002)">
    <g id="그룹_4" data-name="그룹 4" transform="translate(330 17.002)">
      <g id="그룹_3" data-name="그룹 3" clip-path="url(#clip-path)">
        <path id="패스_19" data-name="패스 19" d="M93.091,32.785c0,18.108-20.84,32.787-46.549,32.787S0,50.893,0,32.785,20.84,0,46.542,0,93.091,14.681,93.091,32.785" fill="#0d3896"/>
        <path id="패스_20" data-name="패스 20" d="M48.391,61.334c-19.907-.9-20.464-1.8-16.811-1.879,0,0,74.805-3.213,18.581-7.392,0,0-9.028-.72,15.1-1.467,0,0,6.21-1.09-25.993-3.268,0,0,6.435-2.932,27.807-2.092L60.094,30.89s-1.144-5.951-1.638-7.943S56.671.453,56.671.453c-2.109.265-4.644.454-4.644.454-8.8-.484-21.725,3.9-21.725,3.9L27.4,5.4,27.2,9.146A28.457,28.457,0,0,1,27.4,16.84c.181,3.321-4.3,10.784-4.3,10.784l2.776,7.965-.13,4.723,2.9,7.1s18.107,1.874,23.21,1.626c0,0,11.55.557-4.221,1.293,0,0-44.3-.171-32.638,1.675,0,0,20.838,1.79,31.754,2.545,0,0,12.028,1.4-18.874,3.219,0,0-14.481,1.112-.57,3.82,0,0,22.873,3.572,42.131.023,0,0,6.32-1.806-2.277-.987,0,0-16.728.8-18.771.7" fill="#fff"/>
        <path id="패스_21" data-name="패스 21" d="M81.2,30.291s-13.352-.73-15.247,3.011c0,0-4.162,5.937,11.532,4.624,0,0-1.135-4.118,3.715-7.635" fill="#fc0"/>
        <path id="패스_22" data-name="패스 22" d="M49.674,23.645s-13.312-.749-15.2,3.1c0,0-4.151,6.106,11.5,4.752,0,0-1.13-4.235,3.708-7.854" fill="#40a629"/>
        <path id="패스_23" data-name="패스 23" d="M64.475,10.313S51.48,9.589,49.638,13.305c0,0-4.05,5.89,11.221,4.59,0,0-1.1-4.092,3.616-7.582" fill="#ff7f00"/>
        <path id="패스_24" data-name="패스 24" d="M125.553,24.845a4.1,4.1,0,0,1-3.269,1.635,4.03,4.03,0,0,1-3.237-1.607,5.784,5.784,0,0,1,0-7.341,4.053,4.053,0,0,1,3.237-1.581,4.24,4.24,0,0,1,3.269,1.5,5.361,5.361,0,0,1,1.347,3.714,5.656,5.656,0,0,1-1.347,3.684m30.2-1.886H148.58v-11H137.4v2.29h1.1a2.082,2.082,0,0,1,1.659.643,2.031,2.031,0,0,1,.551,1.329v15.8a13.993,13.993,0,0,1-2.539.483c-.995.106-2.479.159-3.842.159h-8.19V30.013a13.077,13.077,0,0,0,5.952-3.367,7.684,7.684,0,0,0,2.238-5.43,8.072,8.072,0,0,0-3.587-6.642,15.2,15.2,0,0,0-17.311,0,8.077,8.077,0,0,0-3.561,6.642,7.676,7.676,0,0,0,2.235,5.43,12.871,12.871,0,0,0,5.837,3.367v2.654H106.823v4.564h25.3c1.951,0,3.887-.036,5.193-.113a18.406,18.406,0,0,0,3.395-.481v6.017h7.865V27.445h7.177Zm-6.628,26.027H124.844a.92.92,0,0,1-.607-.184.616.616,0,0,1-.218-.5V39.907H112.562v2.288h1.107a2.258,2.258,0,0,1,1.651.551,1.807,1.807,0,0,1,.556,1.332v5.86a3.413,3.413,0,0,0,1.1,2.818,5.3,5.3,0,0,0,3.368.892h28.781Z" fill="#fff"/>
        <path id="패스_25" data-name="패스 25" d="M161.482,18.746a1.831,1.831,0,0,0-.538-1.328,2.117,2.117,0,0,0-1.593-.549h-1.069V14.58h39.205v4.307h-28.1V29.82a.818.818,0,0,0,.293.686,1.138,1.138,0,0,0,.721.23h27.35v4.216H167.609a7.066,7.066,0,0,1-4.663-1.261q-1.463-1.259-1.464-4.19Zm21.941,27.605h18.593v4.53H156.822v-4.53h18.691l-.062-4.575a1.657,1.657,0,0,0-.506-1.26,1.894,1.894,0,0,0-1.359-.481h-.852V37.788h10.628Z" fill="#fff"/>
        <path id="패스_26" data-name="패스 26" d="M218.046,38.813V48.7a.644.644,0,0,0,.211.5.874.874,0,0,0,.585.184h26.7V53.7H214.5a4.99,4.99,0,0,1-3.253-.894,3.479,3.479,0,0,1-1.061-2.815V42.986a1.831,1.831,0,0,0-.535-1.329,2.132,2.132,0,0,0-1.6-.549H206.99v-2.3Zm25.32-9.845h5.9v4.579h-17.5v9.765h-8.226V33.547H203.554V28.968h32a6.725,6.725,0,0,0,1.038-2.884,42.3,42.3,0,0,0,.186-4.425V19.095a.9.9,0,0,0-.21-.69,1.42,1.42,0,0,0-.854-.184H208.053V13.849h36.115a.6.6,0,0,1,.4.116.417.417,0,0,1,.131.341v6.782a36.436,36.436,0,0,1-.291,5.111,6.329,6.329,0,0,1-1.04,2.769" fill="#fff"/>
      </g>
    </g>
    <line id="선_1" data-name="선 1" y2="29" transform="translate(594.5 36.5)" fill="none" stroke="#fff" stroke-width="1" opacity="0.2"/>
    <text id="청산도" transform="translate(610 56)" fill="#fff" font-size="25" font-family="OTSBAggroL, SB AggroOTF"><tspan x="0" y="0">청산도</tspan></text>
  </g>
</svg>
