<svg xmlns="http://www.w3.org/2000/svg" width="7.75" height="7.75" viewBox="0 0 7.75 7.75">
  <path id="more_w" d="M243.552-715.8h-3.229a.312.312,0,0,1-.23-.093.313.313,0,0,1-.093-.23.312.312,0,0,1,.093-.23.313.313,0,0,1,.23-.092h3.229v-3.229a.312.312,0,0,1,.093-.23.313.313,0,0,1,.23-.093.312.312,0,0,1,.23.093.313.313,0,0,1,.092.23v3.229h3.229a.312.312,0,0,1,.23.093.313.313,0,0,1,.093.23.312.312,0,0,1-.093.23.313.313,0,0,1-.23.092H244.2v3.229a.312.312,0,0,1-.093.23.313.313,0,0,1-.23.093.312.312,0,0,1-.23-.093.313.313,0,0,1-.092-.23Z" transform="translate(-240 720)" fill="#fff"/>
</svg>
