<svg width="50" height="51" viewBox="0 0 50 51" fill="none" xmlns="http://www.w3.org/2000/svg">
<path d="M5.68555 40.582C5.68555 40.9544 5.54167 41.2676 5.25391 41.5215C4.96615 41.7754 4.60221 41.9023 4.16211 41.9023C3.72201 41.9023 3.35807 41.8177 3.07031 41.6484V41.7754C3.07031 42.5033 3.49349 43.138 4.33984 43.6797C5.1862 44.1875 6.21875 44.4414 7.4375 44.4414C8.67318 44.4414 9.80729 44.2298 10.8398 43.8066C11.8893 43.3835 12.8711 42.8079 13.7852 42.0801C14.6992 41.3353 15.5625 40.4635 16.375 39.4648C17.2044 38.4661 18 37.3997 18.7617 36.2656C19.5234 35.1315 20.2682 33.9466 20.9961 32.7109L23.7637 28.2422C19.6504 28.1068 16.3242 27.2943 13.7852 25.8047C11.1276 24.2474 9.88346 22.2839 10.0527 19.9141C10.1374 18.4076 10.6875 17.0195 11.7031 15.75C12.7188 14.4635 14.0391 13.3464 15.6641 12.3984C19.1341 10.418 23.2389 9.42773 27.9785 9.42773C29.9251 9.42773 31.3639 9.65625 32.2949 10.1133C32.5488 10.2487 32.6758 10.3672 32.6758 10.4688C32.6758 10.5534 32.5911 10.5957 32.4219 10.5957C32.2695 10.5957 32.1341 10.5872 32.0156 10.5703C31.9141 10.5365 31.694 10.4857 31.3555 10.418C30.1875 10.1471 29.0026 10.0117 27.8008 10.0117C26.599 10.0117 25.3464 10.1302 24.043 10.3672C22.7565 10.5872 21.5208 10.9089 20.3359 11.332C19.151 11.7552 18.0423 12.2715 17.0098 12.8809C15.9941 13.4902 15.1055 14.1758 14.3438 14.9375C12.7188 16.5964 11.8555 18.416 11.7539 20.3965C11.6354 22.123 12.6003 23.6719 14.6484 25.043C17.0013 26.6341 20.1751 27.4889 24.1699 27.6074C30.0436 18.3314 35.418 12.6185 40.293 10.4688C41.8841 9.77474 43.3145 9.42773 44.584 9.42773C47.0892 9.42773 48.291 10.4772 48.1895 12.5762C48.0879 14.3704 47.1146 16.3763 45.2695 18.5938C42.2057 22.2669 38.2109 24.9922 33.2852 26.7695C31.5755 27.3958 29.8066 27.8275 27.9785 28.0645L25.0586 32.4062C20.5052 39.0078 16.1211 43.0111 11.9062 44.416C10.6367 44.8392 9.41797 45.0508 8.25 45.0508C7.08203 45.0508 6.13411 44.9661 5.40625 44.7969C4.69531 44.6107 4.08594 44.3568 3.57812 44.0352C2.5625 43.375 2.05469 42.554 2.05469 41.5723C2.05469 40.5228 2.57943 39.8542 3.62891 39.5664C3.89974 39.4987 4.17057 39.4648 4.44141 39.4648C4.71224 39.4648 4.98307 39.5579 5.25391 39.7441C5.54167 39.9303 5.68555 40.2096 5.68555 40.582ZM28.4609 27.3535C33.2005 26.5579 37.4492 24.5098 41.207 21.209C43.4583 19.2285 45.0664 17.2396 46.0312 15.2422C47.0977 13.0247 47.1823 11.4674 46.2852 10.5703C45.9466 10.2318 45.3711 10.071 44.5586 10.0879C43.763 10.1048 42.8151 10.4349 41.7148 11.0781C40.6146 11.7214 39.4635 12.6523 38.2617 13.8711C35.9766 16.1562 33.3105 19.7194 30.2637 24.5605C29.2819 26.0671 28.681 26.998 28.4609 27.3535Z" fill="url(#paint0_linear_116_18)"/>
<defs>
<linearGradient id="paint0_linear_116_18" x1="20" y1="0" x2="20" y2="43" gradientUnits="userSpaceOnUse">
<stop offset="0.255" stop-color="#BE26AF"/>
<stop offset="1" stop-color="#0F33B1"/>
</linearGradient>
</defs>
</svg>
