<svg width="15" height="15" viewBox="0 0 15 15" fill="none" xmlns="http://www.w3.org/2000/svg">
<mask id="mask0_20_367" style="mask-type:alpha" maskUnits="userSpaceOnUse" x="0" y="0" width="15" height="15">
<rect width="15" height="15" fill="#D9D9D9"/>
</mask>
<g mask="url(#mask0_20_367)">
<path d="M8.14324 7.50012L6.22137 9.422L6.87402 10.0903L9.46418 7.50012L6.87402 4.90997L6.22137 5.57825L8.14324 7.50012ZM7.50012 13.4376C6.67887 13.4376 5.90694 13.2818 5.18434 12.9701C4.46173 12.6585 3.83319 12.2355 3.29871 11.7012C2.76423 11.1669 2.34105 10.5387 2.02918 9.81637C1.71741 9.09408 1.56152 8.32236 1.56152 7.50122C1.56152 6.67997 1.71736 5.90804 2.02902 5.18543C2.34069 4.46283 2.76366 3.83429 3.29793 3.29981C3.8322 2.76533 4.46048 2.34215 5.18277 2.03028C5.90506 1.71851 6.67678 1.56262 7.49793 1.56262C8.31918 1.56262 9.09111 1.71846 9.81371 2.03012C10.5363 2.34179 11.1649 2.76476 11.6993 3.29903C12.2338 3.8333 12.657 4.46158 12.9689 5.18387C13.2806 5.90616 13.4365 6.67788 13.4365 7.49903C13.4365 8.32028 13.2807 9.09221 12.969 9.81481C12.6574 10.5374 12.2344 11.166 11.7001 11.7004C11.1658 12.2349 10.5376 12.6581 9.81527 12.97C9.09298 13.2817 8.32126 13.4376 7.50012 13.4376ZM7.49902 12.5001C8.89486 12.5001 10.0771 12.0157 11.0459 11.047C12.0146 10.0782 12.499 8.89595 12.499 7.50012C12.499 6.10429 12.0146 4.922 11.0459 3.95325C10.0771 2.9845 8.89486 2.50012 7.49902 2.50012C6.10319 2.50012 4.9209 2.9845 3.95215 3.95325C2.9834 4.922 2.49902 6.10429 2.49902 7.50012C2.49902 8.89595 2.9834 10.0782 3.95215 11.047C4.9209 12.0157 6.10319 12.5001 7.49902 12.5001Z" fill="white"/>
</g>
</svg>
