<svg width="149" height="50" viewBox="0 0 149 50" fill="none" xmlns="http://www.w3.org/2000/svg">
<g clip-path="url(#clip0_8_125)">
<path d="M43.5863 38.0186C42.5682 37.6506 42.3753 37.4053 42.3753 36.9832C42.3753 36.5611 42.6682 36.2256 43.3648 36.2256C43.8757 36.2256 44.2151 36.3951 44.5866 36.7054L44.951 36.2544C44.5223 35.9081 44.0865 35.706 43.4006 35.706C42.4503 35.706 41.8073 36.1967 41.8073 37.0193C41.8073 37.7625 42.1788 38.1232 43.2791 38.5201C44.2115 38.8592 44.4937 39.1298 44.4937 39.606C44.4937 40.1508 44.0722 40.4899 43.397 40.4899C42.8719 40.4899 42.4289 40.2446 42.0431 39.873L41.668 40.2987C42.0681 40.71 42.6861 41.0131 43.3791 41.0131C44.4401 41.0131 45.0653 40.3853 45.0653 39.5808C45.0653 38.7762 44.7188 38.4335 43.5899 38.0222L43.5863 38.0186Z" fill="white"/>
<path d="M47.3728 36.994C46.8763 36.994 46.4262 37.1167 46.0904 37.3007L46.2975 37.748C46.6083 37.564 46.937 37.4522 47.3371 37.4522C47.8944 37.4522 48.1659 37.73 48.1659 38.3072V38.7618C47.9408 38.6355 47.5943 38.5381 47.2121 38.5381C46.4583 38.5381 45.751 38.9061 45.751 39.772C45.751 40.7028 46.3761 41.0058 46.9692 41.0058C47.5193 41.0058 47.8944 40.7461 48.1659 40.4539V40.9265H48.7089V38.2351C48.7089 37.3404 48.1945 36.9868 47.3728 36.9868V36.994ZM48.1659 39.9848C47.9337 40.3059 47.5622 40.5621 47.0692 40.5621C46.6012 40.5621 46.2868 40.3132 46.2868 39.7395C46.2868 39.2561 46.6226 38.9819 47.1835 38.9819C47.6479 38.9819 47.9158 39.0685 48.1659 39.2056V39.9885V39.9848Z" fill="white"/>
<path d="M54.1891 38.6716V40.9301H54.7321V38.5814C54.7321 37.4558 54.2463 36.994 53.4675 36.994C52.8459 36.994 52.5351 37.2862 52.3101 37.6542C52.1279 37.2862 51.8028 36.994 51.2634 36.994C50.8133 36.994 50.4917 37.2141 50.2953 37.546V37.077H49.7451V40.9337H50.2953V38.6752C50.2953 37.8202 50.6203 37.4702 51.1455 37.4702C51.6706 37.4702 51.9671 37.7913 51.9671 38.6752V40.9337H52.5137V38.6752C52.5137 37.8202 52.8459 37.4702 53.3639 37.4702C53.9141 37.4702 54.1856 37.7913 54.1856 38.6752L54.1891 38.6716Z" fill="white"/>
<path d="M56.9222 38.6861C56.2756 38.3902 56.0827 38.2639 56.0827 37.9356C56.0827 37.6542 56.3114 37.4594 56.715 37.4594C57.1187 37.4594 57.3688 37.5676 57.6653 37.8058L57.969 37.3981C57.6796 37.1564 57.2723 36.9904 56.7508 36.9904C56.0542 36.9904 55.5576 37.3873 55.5576 37.9717C55.5576 38.5886 55.8755 38.8231 56.6436 39.1551C57.3188 39.4473 57.5438 39.6241 57.5438 39.9416C57.5438 40.3168 57.2973 40.5368 56.7722 40.5368C56.3935 40.5368 56.0363 40.3817 55.7326 40.1111L55.4111 40.5116C55.7755 40.8074 56.2328 41.0058 56.7579 41.0058C57.4188 41.0058 58.0654 40.6775 58.0654 39.9163C58.0654 39.2272 57.6439 39.0144 56.9187 38.6824L56.9222 38.6861Z" fill="white"/>
<path d="M61.2512 39.3282C61.2512 40.1725 60.8333 40.5296 60.3081 40.5296C59.6937 40.5296 59.4043 40.158 59.4043 39.3282V37.0734H58.8613V39.422C58.8613 40.5296 59.3936 41.0095 60.1974 41.0095C60.6797 41.0095 61.0333 40.7822 61.2512 40.4575V40.9301H61.7978V37.0734H61.2512V39.3282Z" fill="white"/>
<path d="M65.6569 40.9301V38.5814C65.6569 37.4702 65.1246 36.994 64.3172 36.994C63.8385 36.994 63.4813 37.2213 63.2669 37.546V37.077H62.7168V40.9337H63.2669V38.6752C63.2669 37.831 63.6778 37.4702 64.2065 37.4702C64.8174 37.4702 65.1103 37.8454 65.1103 38.6752V40.9337H65.6569V40.9301Z" fill="white"/>
<path d="M67.3744 41.9258L67.5494 42.3443C68.9677 42.301 69.4821 41.7418 69.4821 40.5801V37.0698H68.9355V37.5027C68.6676 37.1924 68.3389 36.9904 67.8602 36.9904C67.06 36.9904 66.417 37.6939 66.417 39.0613C66.417 40.4286 67.0243 41.0058 67.7852 41.0058C68.3032 41.0058 68.6676 40.7461 68.9355 40.4539V40.6523C68.9355 41.5506 68.6462 41.8897 67.3708 41.9222L67.3744 41.9258ZM67.9245 40.5296C67.3208 40.5296 66.9564 40.0245 66.9564 39.054C66.9564 38.0186 67.2672 37.4666 67.9031 37.4666C68.3568 37.4666 68.7247 37.7228 68.9355 38.0439V39.974C68.6676 40.3132 68.3318 40.5296 67.9245 40.5296Z" fill="white"/>
<path d="M75.5057 38.3217C75.5057 36.5575 74.5198 35.7854 73.1837 35.7854H71.8369V40.9301H73.0837C74.4447 40.9301 75.5057 40.1869 75.5057 38.3217ZM72.4049 36.3049H73.1408C74.3126 36.3049 74.9377 37.0265 74.9377 38.3397C74.9377 39.8189 74.2518 40.407 73.1551 40.407H72.4049V36.3049Z" fill="white"/>
<path d="M76.9597 37.5496V37.0734H76.4131V40.9301H76.9597V38.6644C76.9597 37.9284 77.2597 37.4991 77.792 37.4991C78.0457 37.4991 78.21 37.5568 78.3636 37.647L78.4994 37.0914C78.3707 37.0337 78.1886 36.9976 77.9028 36.9976C77.4919 36.9976 77.1311 37.2466 76.9597 37.5532V37.5496Z" fill="white"/>
<path d="M81.764 40.5621L81.5068 40.1652C81.1567 40.3997 80.8959 40.5332 80.4494 40.5332C79.8278 40.5332 79.4384 40.0101 79.3884 39.1911H81.9319C81.9498 39.1009 81.9569 39.0216 81.9569 38.8917C81.9569 37.7913 81.4139 36.9976 80.4172 36.9976C79.5098 36.9976 78.8418 37.7589 78.8418 38.9819C78.8418 40.5008 79.692 41.0131 80.3922 41.0131C80.9674 41.0131 81.3032 40.8579 81.764 40.5657V40.5621ZM80.4172 37.4702C81.0852 37.4702 81.4068 37.9934 81.4496 38.7402H79.3884C79.4527 37.8779 79.8492 37.4702 80.4172 37.4702Z" fill="white"/>
<path d="M83.7787 41.0095C84.3253 41.0095 84.7004 40.7497 84.9683 40.4575V40.9301H85.5149V38.2387C85.5149 37.344 85.0004 36.9904 84.1788 36.9904C83.6822 36.9904 83.2321 37.1131 82.8963 37.2971L83.0999 37.7444C83.4143 37.5604 83.7394 37.4486 84.1395 37.4486C84.7004 37.4486 84.9683 37.7264 84.9683 38.3036V38.7582C84.7432 38.6319 84.4003 38.5345 84.018 38.5345C83.2607 38.5345 82.5498 38.9025 82.5498 39.7684C82.5498 40.6992 83.1785 41.0022 83.7751 41.0022L83.7787 41.0095ZM83.9895 38.9783C84.4539 38.9783 84.7254 39.0649 84.9719 39.202V39.9848C84.7397 40.3059 84.3681 40.5621 83.8752 40.5621C83.4107 40.5621 83.0928 40.3132 83.0928 39.7395C83.0928 39.2561 83.4322 38.9819 83.9895 38.9819V38.9783Z" fill="white"/>
<path d="M90.9952 38.6716V40.9301H91.5417V38.5814C91.5417 37.4558 91.0559 36.994 90.2771 36.994C89.6591 36.994 89.3447 37.2862 89.1232 37.6542C88.9411 37.2862 88.616 36.994 88.0765 36.994C87.6228 36.994 87.3049 37.2141 87.1084 37.546V37.077H86.5654V40.9337H87.1084V38.6752C87.1084 37.8202 87.4371 37.4702 87.9622 37.4702C88.4874 37.4702 88.7874 37.7913 88.7874 38.6752V40.9337H89.3304V38.6752C89.3304 37.8202 89.6627 37.4702 90.1842 37.4702C90.7344 37.4702 91.0059 37.7913 91.0059 38.6752L90.9952 38.6716Z" fill="white"/>
<path d="M43.5863 45.6707C42.5646 45.3027 42.3789 45.061 42.3789 44.6353C42.3789 44.2095 42.6718 43.8812 43.3684 43.8812C43.8793 43.8812 44.2222 44.0472 44.5902 44.3575L44.9545 43.9101C44.5259 43.5674 44.0865 43.3617 43.4041 43.3617C42.4503 43.3617 41.8109 43.8452 41.8109 44.6749C41.8109 45.4181 42.1824 45.7753 43.2827 46.1722C44.2151 46.5149 44.4973 46.7819 44.4973 47.2617C44.4973 47.8029 44.0757 48.142 43.397 48.142C42.8719 48.142 42.4289 47.8967 42.0431 47.5251L41.668 47.9508C42.0681 48.3621 42.6861 48.6615 43.3791 48.6615C44.4401 48.6615 45.0617 48.0374 45.0617 47.2292C45.0617 46.4211 44.7152 46.082 43.5899 45.6707H43.5863Z" fill="white"/>
<path d="M47.3807 45.1223C47.7665 45.1223 48.0201 45.2594 48.2952 45.5119L48.6239 45.1007C48.3238 44.8337 47.9272 44.6425 47.4164 44.6425C46.6162 44.6425 45.7695 45.245 45.7695 46.67C45.7695 48.0157 46.5376 48.6579 47.3771 48.6579C47.913 48.6579 48.2845 48.4523 48.606 48.1204L48.2773 47.7704C48.0166 48.0266 47.7701 48.1781 47.3985 48.1781C46.7234 48.1781 46.3197 47.5684 46.3197 46.6195C46.3197 45.6707 46.7805 45.1151 47.3771 45.1151L47.3807 45.1223Z" fill="white"/>
<path d="M50.9559 44.6461C50.4772 44.6461 50.1164 44.8734 49.8985 45.1981V43.387H49.3555V48.5894H49.8985V46.3309C49.8985 45.4867 50.3164 45.1259 50.8451 45.1259C51.4596 45.1259 51.749 45.4975 51.749 46.3309V48.5894H52.2955V46.2335C52.2955 45.1259 51.7632 44.6461 50.9559 44.6461Z" fill="white"/>
<path d="M54.7318 44.6461C53.803 44.6461 53.0635 45.3496 53.0635 46.6592C53.0635 47.9688 53.7744 48.6651 54.7032 48.6651C55.632 48.6651 56.3786 47.94 56.3786 46.6303C56.3786 45.3207 55.6606 44.6461 54.7318 44.6461ZM54.7211 48.1853C54.0566 48.1853 53.6101 47.6586 53.6101 46.6448C53.6101 45.631 54.0566 45.1259 54.7211 45.1259C55.3855 45.1259 55.8321 45.631 55.8321 46.6448C55.8321 47.6586 55.3819 48.1853 54.7211 48.1853Z" fill="white"/>
<path d="M57.7468 43.3834H57.2002V48.5858H57.7468V43.3834Z" fill="white"/>
<path d="M60.2443 44.6461C59.7477 44.6461 59.2976 44.7724 58.9654 44.9563L59.169 45.4073C59.4833 45.2233 59.812 45.1115 60.2121 45.1115C60.7694 45.1115 61.0409 45.3929 61.0409 45.9629V46.4211C60.8158 46.2948 60.4729 46.1974 60.0907 46.1974C59.3333 46.1974 58.626 46.5654 58.626 47.4349C58.626 48.3657 59.2511 48.6651 59.8477 48.6651C60.3943 48.6651 60.7694 48.409 61.0409 48.1167V48.5894H61.5875V45.9016C61.5875 44.9996 61.0695 44.6497 60.2478 44.6497L60.2443 44.6461ZM61.0373 47.6369C60.8087 47.9544 60.43 48.2142 59.9406 48.2142C59.4762 48.2142 59.1618 47.9652 59.1618 47.3916C59.1618 46.9045 59.4976 46.6376 60.0585 46.6376C60.5229 46.6376 60.7908 46.7169 61.0373 46.8576V47.6369Z" fill="white"/>
<path d="M63.1696 45.2053V44.7218H62.623V48.5822H63.1696V46.3165C63.1696 45.5841 63.4626 45.1476 63.9984 45.1476C64.2556 45.1476 64.4199 45.2053 64.5736 45.2955L64.7129 44.7363C64.5807 44.6785 64.4021 44.6389 64.1163 44.6389C63.709 44.6389 63.3411 44.8878 63.1732 45.2017L63.1696 45.2053Z" fill="white"/>
<path d="M66.8067 46.3417C66.1601 46.0459 65.9636 45.9124 65.9636 45.5913C65.9636 45.3135 66.1958 45.1151 66.5959 45.1151C66.996 45.1151 67.2532 45.2269 67.5497 45.4614L67.8534 45.0574C67.5604 44.8156 67.1568 44.6461 66.6316 44.6461C65.9386 44.6461 65.4349 45.0429 65.4349 45.631C65.4349 46.2191 65.7564 46.4824 66.5209 46.8107C67.1961 47.103 67.4211 47.2834 67.4211 47.5972C67.4211 47.976 67.1746 48.1925 66.6531 48.1925C66.2708 48.1925 65.9172 48.0374 65.6099 47.7668L65.292 48.1709C65.6564 48.4667 66.1136 48.6615 66.6388 48.6615C67.2997 48.6615 67.9463 48.3296 67.9463 47.5756C67.9463 46.8829 67.5247 46.6736 66.8031 46.3417H66.8067Z" fill="white"/>
<path d="M70.4399 44.6461C69.9541 44.6461 69.6004 44.8734 69.3825 45.1981V43.387H68.8359V48.5894H69.3825V46.3309C69.3825 45.4867 69.7969 45.1259 70.3292 45.1259C70.9401 45.1259 71.2294 45.4975 71.2294 46.3309V48.5894H71.776V46.2335C71.776 45.1259 71.2473 44.6461 70.4399 44.6461Z" fill="white"/>
<path d="M73.3975 44.7218H72.8545V48.5822H73.3975V44.7218Z" fill="white"/>
<path d="M73.1368 43.2499C72.9153 43.2499 72.7402 43.4267 72.7402 43.6503C72.7402 43.874 72.9153 44.04 73.1368 44.04C73.3404 44.04 73.5154 43.8596 73.5154 43.6503C73.5154 43.4267 73.3404 43.2499 73.1368 43.2499Z" fill="white"/>
<path d="M76.1949 44.6461C75.6805 44.6461 75.3161 44.9058 75.0446 45.1981V44.7255H74.498V50.0036H75.0446V48.1528C75.3126 48.4595 75.6412 48.6651 76.1235 48.6651C76.9201 48.6651 77.5631 47.958 77.5631 46.5943C77.5631 45.2305 76.9558 44.6461 76.1949 44.6461ZM76.077 48.1853C75.6269 48.1853 75.2554 47.9291 75.0446 47.6044V45.6779C75.3126 45.3424 75.6484 45.1223 76.0556 45.1223C76.6629 45.1223 77.0273 45.6274 77.0273 46.5979C77.0273 47.6333 76.7129 48.1817 76.0806 48.1817L76.077 48.1853Z" fill="white"/>
<path d="M80.4528 43.9606H82.8748V43.4411H79.8848V48.5858H80.4528V46.1866H81.8496V45.6671H80.4528V43.9606Z" fill="white"/>
<path d="M84.5332 44.6461C83.6044 44.6461 82.8613 45.3496 82.8613 46.6592C82.8613 47.9688 83.5758 48.6651 84.5046 48.6651C85.4334 48.6651 86.1801 47.94 86.1801 46.6303C86.1801 45.3207 85.4692 44.6461 84.5332 44.6461ZM84.5189 48.1853C83.8544 48.1853 83.415 47.6586 83.415 46.6448C83.415 45.631 83.858 45.1259 84.5189 45.1259C85.1798 45.1259 85.6335 45.631 85.6335 46.6448C85.6335 47.6586 85.1834 48.1853 84.5189 48.1853Z" fill="white"/>
<path d="M89.1917 46.9803C89.1917 47.8245 88.7809 48.1853 88.2486 48.1853C87.6377 48.1853 87.3448 47.8137 87.3448 46.9803V44.7218H86.8018V47.0741C86.8018 48.1817 87.334 48.6615 88.1414 48.6615C88.6165 48.6615 88.9738 48.4378 89.1917 48.1131V48.5858H89.7418V44.7255H89.1917V46.9839V46.9803Z" fill="white"/>
<path d="M92.2567 44.6461C91.778 44.6461 91.4207 44.8734 91.2028 45.1981V44.7255H90.6562V48.5858H91.2028V46.3273C91.2028 45.4831 91.6172 45.1223 92.1495 45.1223C92.7604 45.1223 93.0497 45.4939 93.0497 46.3273V48.5858H93.5963V46.2299C93.5963 45.1223 93.064 44.6425 92.2567 44.6425V44.6461Z" fill="white"/>
<path d="M96.8789 45.162C96.6074 44.8517 96.2823 44.6425 95.8 44.6425C94.9998 44.6425 94.3604 45.346 94.3604 46.7169C94.3604 48.0879 94.9641 48.6615 95.7286 48.6615C96.2466 48.6615 96.6074 48.4054 96.8753 48.1131V48.5858H97.4219V43.3834H96.8753V45.162H96.8789ZM96.8789 47.6261C96.6074 47.9616 96.2751 48.1817 95.8679 48.1817C95.2642 48.1817 94.8998 47.6766 94.8998 46.7061C94.8998 45.6671 95.2106 45.1187 95.8464 45.1187C96.2966 45.1187 96.6645 45.3748 96.8789 45.6995V47.6225V47.6261Z" fill="white"/>
<path d="M99.7368 44.6461C99.2438 44.6461 98.7936 44.7724 98.4578 44.9563L98.6579 45.4073C98.9723 45.2233 99.3009 45.1115 99.701 45.1115C100.258 45.1115 100.526 45.3929 100.526 45.9629V46.4211C100.301 46.2948 99.9582 46.1974 99.5724 46.1974C98.8187 46.1974 98.1113 46.5654 98.1113 47.4349C98.1113 48.3657 98.7401 48.6651 99.3366 48.6651C99.8832 48.6651 100.258 48.409 100.526 48.1167V48.5894H101.073V45.9016C101.073 44.9996 100.558 44.6497 99.7332 44.6497L99.7368 44.6461ZM100.526 47.6369C100.294 47.9544 99.9261 48.2142 99.426 48.2142C98.9651 48.2142 98.6543 47.9652 98.6543 47.3916C98.6543 46.9045 98.9866 46.6376 99.5474 46.6376C100.012 46.6376 100.283 46.7169 100.526 46.8576V47.6369Z" fill="white"/>
<path d="M102.817 43.3834H102.266V44.7218H101.795V45.1872H102.266V47.7884C102.266 48.427 102.524 48.6579 102.999 48.6579C103.285 48.6579 103.488 48.6146 103.699 48.528L103.738 48.0518C103.563 48.124 103.42 48.16 103.199 48.16C102.909 48.16 102.817 48.041 102.817 47.6983V45.1872H103.763V44.7218H102.817V43.3834Z" fill="white"/>
<path d="M105.002 43.2499C104.777 43.2499 104.599 43.4267 104.599 43.6503C104.599 43.874 104.777 44.04 105.002 44.04C105.206 44.04 105.377 43.8596 105.377 43.6503C105.377 43.4267 105.202 43.2499 105.002 43.2499Z" fill="white"/>
<path d="M105.263 44.7218H104.717V48.5822H105.263V44.7218Z" fill="white"/>
<path d="M107.757 44.6461C106.828 44.6461 106.085 45.3496 106.085 46.6592C106.085 47.9688 106.796 48.6651 107.728 48.6651C108.661 48.6651 109.4 47.94 109.4 46.6303C109.4 45.3207 108.686 44.6461 107.757 44.6461ZM107.743 48.1853C107.082 48.1853 106.635 47.6586 106.635 46.6448C106.635 45.631 107.082 45.1259 107.743 45.1259C108.403 45.1259 108.857 45.631 108.857 46.6448C108.857 47.6586 108.407 48.1853 107.743 48.1853Z" fill="white"/>
<path d="M111.79 44.6461C111.311 44.6461 110.954 44.8734 110.732 45.1981V44.7255H110.186V48.5858H110.732V46.3273C110.732 45.4831 111.147 45.1223 111.679 45.1223C112.29 45.1223 112.583 45.4939 112.583 46.3273V48.5858H113.126V46.2299C113.126 45.1223 112.593 44.6425 111.79 44.6425V44.6461Z" fill="white"/>
<path d="M62.6837 25.6584C60.4902 25.662 58.6826 27.3938 58.6826 29.5656C58.6826 31.7375 60.4902 33.4512 62.6837 33.4584C64.8985 33.4512 66.6883 31.7159 66.6883 29.5656C66.6883 27.4154 64.8985 25.662 62.6837 25.6584ZM62.6301 31.6762C61.4834 31.6762 60.6188 30.7309 60.6188 29.5656C60.6188 28.4003 61.5441 27.437 62.6872 27.437C63.8304 27.437 64.7235 28.3823 64.7235 29.5656C64.7235 30.749 63.7875 31.6762 62.6337 31.6762H62.6301Z" fill="white"/>
<path d="M44.3257 22.9706C44.9366 23.5803 45.6368 24.1143 46.3263 24.457L46.3977 24.4967L47.5802 23.0861L47.4658 23.0211C46.3441 22.4078 45.4653 21.6322 44.8902 20.6544C44.3186 19.6912 44.0256 18.5728 44.0256 17.2343V15.9788H41.9108V17.1008C41.9108 18.5511 41.5857 19.6912 40.9748 20.6905C40.2925 21.7981 39.2815 22.6892 37.9883 23.5154L37.874 23.5876L39.1565 24.9296L39.228 24.89C39.9924 24.4715 40.8034 23.8257 41.5071 23.1041C42.118 22.4728 42.6467 21.7981 42.9682 21.1595C43.279 21.7873 43.7541 22.4259 44.3257 22.9742V22.9706Z" fill="white"/>
<path d="M42.0361 32.5348H50.8885V26.4269H42.0361V32.5348ZM44.0259 28.1514H48.8987V30.8103H44.0259V28.1514Z" fill="white"/>
<path d="M71.5508 32.5348H81.5606V26.4269H71.5508V32.5348ZM73.5192 28.1514H79.5958V30.8103H73.5192V28.1514Z" fill="white"/>
<path d="M50.9235 15.618H48.9551V25.727H50.9235V21.2533H53.2276V19.4567H50.9235V15.618Z" fill="white"/>
<path d="M91.7342 23.4865C92.3808 24.053 93.1203 24.5292 93.8169 24.8358L93.8884 24.8683L94.9529 23.4144L94.8386 23.3567C93.8241 22.8335 92.9203 22.1841 92.2701 21.3904C91.6092 20.5823 91.2162 19.6082 91.2162 18.4357V18.0929H94.1456V16.354H86.1935V18.0929H89.1193V18.5114C89.1193 19.5793 88.7692 20.5751 88.1869 21.4373C87.5045 22.4728 86.5079 23.3062 85.5397 23.8473L85.4111 23.9159L86.7186 25.2832L86.7901 25.2471C87.4938 24.8431 88.2726 24.2333 88.9371 23.5479C89.4693 22.9851 89.948 22.3898 90.241 21.7945C90.5946 22.3717 91.1376 22.949 91.7378 23.4865H91.7342Z" fill="white"/>
<path d="M105.971 28.1911H113.126V32.5312H115.112V26.4666H105.971V28.1911Z" fill="white"/>
<path d="M110.908 21.2389C110.908 20.2828 110.483 19.4026 109.854 18.7315H111.819V17.0106H108.068V15.1165H105.935V17.0106H102.095V18.7315H104.102C103.488 19.4026 103.063 20.2756 103.063 21.2389C103.063 23.3711 104.803 25.1028 106.978 25.11C109.154 25.1028 110.904 23.3711 110.908 21.2389ZM104.96 21.1595C104.96 19.9798 105.946 18.9804 106.978 18.9804C108.011 18.9804 108.993 19.9834 108.997 21.1595C108.997 22.3212 108.011 23.3242 106.978 23.3278C105.942 23.3242 104.963 22.3212 104.96 21.1595Z" fill="white"/>
<path d="M115.112 15.618H113.147V25.763H115.112V21.8919H117.424V20.0952H115.112V15.618Z" fill="white"/>
<path d="M98.4404 15.618H96.4756V25.763H98.4404V21.2533H100.748V19.4567H98.4404V15.618Z" fill="white"/>
<path d="M65.0888 18.6269H61.9951V20.4055H65.0888V26.0841H67.0572V15.618H65.0888V18.6269Z" fill="white"/>
<path d="M60.0904 23.234C60.7049 23.8401 61.4229 24.3741 62.1088 24.7348L62.1838 24.7781L63.3663 23.3675L63.252 23.3025C62.1302 22.7073 61.2693 21.9352 60.6906 20.9719C60.1047 20.0159 59.8118 18.8542 59.8118 17.5157V15.9788H57.6934V17.3858C57.6934 18.8361 57.3718 19.9726 56.7753 20.9539C56.0965 22.0795 55.0641 22.9778 53.7709 23.7968L53.6602 23.869L54.9498 25.2147L55.0141 25.1714C55.775 24.7493 56.5681 24.1395 57.2718 23.4433C57.9077 22.8047 58.4364 22.1084 58.7579 21.4409C59.0616 22.0507 59.526 22.6712 60.0904 23.2376V23.234Z" fill="white"/>
<path d="M94.2214 25.6584C92.028 25.662 90.2204 27.3938 90.2168 29.5656C90.2204 31.7159 92.0244 33.4512 94.2214 33.4584C96.4327 33.4512 98.2261 31.7159 98.2261 29.5656C98.2261 27.4154 96.4327 25.662 94.2214 25.6584ZM94.1643 31.6762C93.0211 31.6762 92.1495 30.7309 92.1495 29.5656C92.1495 28.4003 93.0711 27.437 94.2214 27.437C95.3717 27.437 96.2541 28.3823 96.2577 29.5656C96.2577 30.7273 95.3181 31.6762 94.1643 31.6762Z" fill="white"/>
<path d="M73.9482 21.4157H75.9166V16.253H70.6045V17.9703H73.9482V21.4157Z" fill="white"/>
<path d="M79.8568 21.4157H81.8287V16.253H76.5166V17.9703H79.8568V21.4157Z" fill="white"/>
<path d="M130.031 20.189H128.377V15.8994H126.516V32.0983H128.377V22.1372H130.031V32.5312H131.96V15.618H130.031V20.189Z" fill="white"/>
<path d="M123.786 22.4295C123.343 21.4518 123.161 20.3586 123.161 19.0165V18.3779H125.394V16.556H118.906V18.3779H121.21V19.0526C121.21 20.3225 121.046 21.3616 120.65 22.3248C120.189 23.4324 119.414 24.4282 118.178 25.4961L118.092 25.5754L119.314 26.7985L119.389 26.7407C120.003 26.2826 120.646 25.6187 121.182 24.9333C121.636 24.356 122.018 23.7571 122.257 23.2304C122.504 23.7427 122.889 24.3308 123.34 24.8791C123.861 25.5213 124.451 26.131 125.015 26.4954L125.09 26.5459L126.119 25.3049L126.037 25.2291C124.929 24.255 124.243 23.3855 123.793 22.4259L123.786 22.4295Z" fill="white"/>
<path d="M68.957 23.8185H75.4909V25.745H77.6236V23.8185H84.2611V22.0903H68.957V23.8185Z" fill="white"/>
<path d="M143.166 23.2665H136.514V18.1543H141.58V16.354H134.521V25.0126H143.166V23.2665Z" fill="white"/>
<path d="M139.405 27.1412H137.415V32.5312H146.721V30.7562H139.405V27.1412Z" fill="white"/>
<path d="M146.674 20.3009V15.6144H144.709V28.0937H146.674V22.0976H148.999V20.3009H146.674Z" fill="white"/>
<path d="M41.729 10.3976L36.6312 8.26539L41.729 6.1332L40.8216 3.92886L35.7274 6.06104L37.8386 0.912764L35.6524 0L33.5447 5.14828L31.4334 0L29.2471 0.912764L31.3584 6.06104L26.2642 3.92886L25.3604 6.1332L30.4546 8.26539L25.3604 10.3976L26.2642 12.6019L31.3584 10.4697L29.2471 15.618L31.4334 16.5308L33.5447 11.3861L35.6524 16.5308L37.8386 15.6144L35.7274 10.4697L40.8216 12.6019L41.729 10.3976Z" fill="white"/>
<path d="M8.74513 24.7601H12.1353V15.618H0.542969V18.699H8.74513V24.7601Z" fill="white"/>
<path d="M21.9697 24.7601H25.3599V15.618H13.7676V18.699H21.9697V24.7601Z" fill="white"/>
<path d="M0 29.4899H21.9701V34.198H25.3603V26.4088H0V29.4899Z" fill="white"/>
<path d="M8.20215 48.5858H25.3602V35.7818H8.20215V48.5858ZM11.5923 38.8628H21.9736V45.5047H11.5923V38.8628Z" fill="white"/>
</g>
<defs>
<clipPath id="clip0_8_125">
<rect width="149" height="50" fill="white"/>
</clipPath>
</defs>
</svg>
