<svg width="15" height="15" viewBox="0 0 15 15" fill="none" xmlns="http://www.w3.org/2000/svg">
<mask id="mask0_25_490" style="mask-type:alpha" maskUnits="userSpaceOnUse" x="0" y="0" width="15" height="15">
<rect width="15" height="15" fill="#D9D9D9"/>
</mask>
<g mask="url(#mask0_25_490)">
<path d="M8.14324 7.5L6.22137 9.42187L6.87402 10.0902L9.46418 7.5L6.87402 4.90984L6.22137 5.57812L8.14324 7.5ZM7.50012 13.4375C6.67887 13.4375 5.90694 13.2817 5.18434 12.97C4.46173 12.6583 3.83319 12.2354 3.29871 11.7011C2.76423 11.1668 2.34105 10.5385 2.02918 9.81625C1.71741 9.09396 1.56152 8.32224 1.56152 7.50109C1.56152 6.67984 1.71736 5.90792 2.02902 5.18531C2.34069 4.46271 2.76366 3.83417 3.29793 3.29969C3.8322 2.76521 4.46048 2.34203 5.18277 2.03016C5.90506 1.71839 6.67678 1.5625 7.49793 1.5625C8.31918 1.5625 9.09111 1.71833 9.81371 2.03C10.5363 2.34167 11.1649 2.76464 11.6993 3.29891C12.2338 3.83318 12.657 4.46146 12.9689 5.18375C13.2806 5.90604 13.4365 6.67776 13.4365 7.49891C13.4365 8.32016 13.2807 9.09208 12.969 9.81469C12.6574 10.5373 12.2344 11.1658 11.7001 11.7003C11.1658 12.2348 10.5376 12.658 9.81527 12.9698C9.09298 13.2816 8.32126 13.4375 7.50012 13.4375ZM7.49902 12.5C8.89486 12.5 10.0771 12.0156 11.0459 11.0469C12.0146 10.0781 12.499 8.89583 12.499 7.5C12.499 6.10417 12.0146 4.92187 11.0459 3.95312C10.0771 2.98437 8.89486 2.5 7.49902 2.5C6.10319 2.5 4.9209 2.98437 3.95215 3.95312C2.9834 4.92187 2.49902 6.10417 2.49902 7.5C2.49902 8.89583 2.9834 10.0781 3.95215 11.0469C4.9209 12.0156 6.10319 12.5 7.49902 12.5Z" fill="#1A44DC"/>
</g>
</svg>
