<svg width="18" height="20" viewBox="0 0 18 20" fill="none" xmlns="http://www.w3.org/2000/svg">
<path d="M1.6875 2.4165C1.45729 2.4165 1.26437 2.33859 1.10873 2.18277C0.95291 2.02696 0.875 1.83394 0.875 1.60373C0.875 1.37334 0.95291 1.18042 1.10873 1.02496C1.26437 0.869323 1.45729 0.791504 1.6875 0.791504H16.3125C16.5427 0.791504 16.7356 0.869414 16.8913 1.02523C17.0471 1.18105 17.125 1.37407 17.125 1.60427C17.125 1.83466 17.0471 2.02759 16.8913 2.18305C16.7356 2.33868 16.5427 2.4165 16.3125 2.4165H1.6875ZM8.99973 19.2082C8.76934 19.2082 8.57642 19.1303 8.42096 18.9744C8.26532 18.8188 8.1875 18.6259 8.1875 18.3957V8.0539L5.67092 10.5708C5.51383 10.7277 5.32353 10.8061 5.1 10.8061C4.87647 10.8061 4.68617 10.7277 4.52908 10.5708C4.37218 10.4137 4.29544 10.2216 4.29888 9.99469C4.30249 9.76755 4.37922 9.57896 4.52908 9.42892L8.31452 5.64348C8.41599 5.54219 8.52342 5.47069 8.63681 5.42898C8.7502 5.38727 8.87172 5.36642 9.00135 5.36642C9.13099 5.36642 9.25206 5.38727 9.36454 5.42898C9.47703 5.47069 9.58401 5.54219 9.68548 5.64348L13.4709 9.42892C13.6278 9.586 13.7063 9.77631 13.7063 9.99984C13.7063 10.2234 13.6278 10.4137 13.4709 10.5708C13.3138 10.7277 13.1218 10.8044 12.8949 10.801C12.6677 10.7974 12.4791 10.7206 12.3291 10.5708L9.8125 8.0539V18.3957C9.8125 18.6259 9.73459 18.8188 9.57877 18.9744C9.42295 19.1303 9.22994 19.2082 8.99973 19.2082Z" fill="white" fill-opacity="0.8"/>
</svg>
