<svg xmlns="http://www.w3.org/2000/svg" width="98" height="25" viewBox="0 0 98 25">
  <g id="full_view" transform="translate(-940 -1729)">
    <text id="전체보기" transform="translate(954 1746)" fill="#fff" font-size="13" font-family="Pretendard Variable" opacity="0.8"><tspan x="0" y="0">전체보기</tspan></text>
    <g id="사각형_59" data-name="사각형 59" transform="translate(940 1729)" fill="none" stroke="#fff" stroke-width="1" opacity="0.8">
      <rect width="98" height="25" rx="12.5" stroke="none"/>
      <rect x="0.5" y="0.5" width="97" height="24" rx="12" fill="none"/>
    </g>
    <path id="add_24dp_FILL0_wght100_GRAD0_opsz24" d="M257.162-702.162h-4.825a.327.327,0,0,1-.241-.1.328.328,0,0,1-.1-.241.325.325,0,0,1,.1-.24.328.328,0,0,1,.241-.1h4.825v-4.825a.326.326,0,0,1,.1-.241.327.327,0,0,1,.241-.1.325.325,0,0,1,.24.1.327.327,0,0,1,.1.241v4.825h4.825a.326.326,0,0,1,.241.1.328.328,0,0,1,.1.241.325.325,0,0,1-.1.24.328.328,0,0,1-.241.1h-4.825v4.825a.326.326,0,0,1-.1.241.328.328,0,0,1-.241.1.325.325,0,0,1-.24-.1.328.328,0,0,1-.1-.241Z" transform="translate(759 2444)" fill="#fff" opacity="0.8"/>
  </g>
</svg>
