<svg xmlns="http://www.w3.org/2000/svg" width="25" height="25" viewBox="0 0 25 25">
  <g id="next_b" transform="translate(-991 -845)">
    <g id="패스_116" data-name="패스 116" transform="translate(991 845)" fill="none">
      <path d="M12.5,0a12.5,12.5,0,0,1,5.536,23.71A12.13,12.13,0,0,1,12.5,25a12.5,12.5,0,0,1,0-25Z" stroke="none"/>
      <path d="M 12.5 1 C 9.428239822387695 1 6.54033088684082 2.196210861206055 4.368270874023438 4.368270874023438 C 2.196210861206055 6.54033088684082 1 9.428239822387695 1 12.5 C 1 15.5717601776123 2.196210861206055 18.45967102050781 4.368270874023438 20.63172912597656 C 6.54033088684082 22.80379104614258 9.428239822387695 24 12.5 24 C 14.3118896484375 24 16.15909957885742 23.57231903076172 17.57080078125 22.82514953613281 C 19.52306938171387 21.79976081848145 21.14677047729492 20.31690979003906 22.26637077331543 18.53692054748535 C 23.40052032470703 16.73379135131836 24 14.64626026153564 24 12.5 C 24 9.428239822387695 22.80379104614258 6.54033088684082 20.63172912597656 4.368270874023438 C 18.45967102050781 2.196210861206055 15.5717601776123 1 12.5 1 M 12.5 0 C 19.40356063842773 0 25 5.596439361572266 25 12.5 C 25 17.30488014221191 22.28899002075195 21.47656059265137 18.03578948974609 23.7104606628418 C 16.57656097412109 24.4827995300293 14.5986795425415 25 12.5 25 C 5.596439361572266 25 0 19.40356063842773 0 12.5 C 0 5.596439361572266 5.596439361572266 0 12.5 0 Z" stroke="none" fill="rgba(29,29,29,0.8)"/>
    </g>
    <path id="arrow_forward_ios_24dp_FILL0_wght200_GRAD0_opsz24" d="M296.731-832.5l-6.43-6.431a.6.6,0,0,1-.182-.443.612.612,0,0,1,.187-.443.6.6,0,0,1,.443-.184.6.6,0,0,1,.443.184l6.365,6.37a1.255,1.255,0,0,1,.295.45,1.411,1.411,0,0,1,.093.5,1.411,1.411,0,0,1-.093.5,1.256,1.256,0,0,1-.295.45l-6.37,6.37a.592.592,0,0,1-.441.182.609.609,0,0,1-.441-.187.6.6,0,0,1-.184-.443.6.6,0,0,1,.184-.443Z" transform="translate(709.882 1689.5)" fill="rgba(29,29,29,0.8)"/>
  </g>
</svg>
