<svg xmlns="http://www.w3.org/2000/svg" width="25" height="25" viewBox="0 0 25 25">
  <g id="play" transform="translate(-933 -845)">
    <g id="타원_3" data-name="타원 3" transform="translate(933 845)" fill="none" stroke="rgba(255,255,255,0.6)" stroke-width="1">
      <circle cx="12.5" cy="12.5" r="12.5" stroke="none"/>
      <circle cx="12.5" cy="12.5" r="12" fill="none"/>
    </g>
    <path id="play_arrow_24dp_FILL0_wght100_GRAD0_opsz24" d="M372-627.4v-12.2a1.3,1.3,0,0,1,.419-1.025A1.426,1.426,0,0,1,373.4-641a1.531,1.531,0,0,1,.373.047,1.819,1.819,0,0,1,.373.14l9.6,6.149a1.686,1.686,0,0,1,.489.512,1.271,1.271,0,0,1,.163.652,1.271,1.271,0,0,1-.163.652,1.685,1.685,0,0,1-.489.512l-9.6,6.149a1.819,1.819,0,0,1-.373.14,1.531,1.531,0,0,1-.373.047,1.427,1.427,0,0,1-.978-.373A1.3,1.3,0,0,1,372-627.4ZM373.3-633.5Zm0,6.242,9.876-6.242-9.876-6.242Z" transform="translate(568.536 1491)" fill="rgba(255,255,255,0.6)"/>
  </g>
</svg>
