<svg xmlns="http://www.w3.org/2000/svg" width="15.421" height="8.298" viewBox="0 0 15.421 8.298">
  <path id="keyboard_arrow_up_24dp_FILL0_wght200_GRAD0_opsz24" d="M283.177-597.732l-6.409,6.408a.759.759,0,0,1-.52.226.7.7,0,0,1-.548-.226.74.74,0,0,1-.241-.534.74.74,0,0,1,.241-.534l6.623-6.623a1.17,1.17,0,0,1,.853-.366,1.17,1.17,0,0,1,.853.366l6.623,6.623a.758.758,0,0,1,.226.52.7.7,0,0,1-.226.548.74.74,0,0,1-.534.241.74.74,0,0,1-.534-.241Z" transform="translate(290.881 -591.082) rotate(180)" fill="#fff"/>
</svg>
