<svg width="89" height="89" viewBox="0 0 89 89" fill="none" xmlns="http://www.w3.org/2000/svg">
<path d="M22.1328 55.7965V43.5008L19.7393 38.5953C17.9096 34.8462 12.6338 34.8462 10.8041 38.5953L1.52436 57.5885C-0.117305 60.9499 2.29506 64.8896 5.99193 64.8896H24.5515C25.4788 64.8896 26.331 64.6418 27.0516 64.2161C24.1191 62.583 22.1328 59.4312 22.1328 55.8029V55.7965Z" fill="#35763C"/>
<path d="M77.0848 26.4647C75.5747 21.8451 69.1333 21.8451 67.6233 26.4647L62.6419 41.6834C65.1545 44.2633 66.7022 47.8027 66.7022 51.717C66.7022 57.0801 63.7885 61.7442 59.4839 64.1906C60.2233 64.629 61.0817 64.8896 62.0216 64.8896H82.6865C86.1202 64.8896 88.5513 61.4773 87.4673 58.173L77.0848 26.4647Z" fill="#648943"/>
<path d="M44.5271 40.0187V35.3483C44.5271 30.0487 40.2913 25.7532 35.0656 25.7532H31.5943C26.3686 25.7532 22.1328 30.0487 22.1328 35.3483V43.4946L29.0128 57.5822C30.2409 60.0985 29.2007 62.9389 27.0453 64.2098C28.3924 64.9596 29.9401 65.3917 31.588 65.3917H35.0593C38.092 65.3917 40.7863 63.9366 42.5157 61.6871C40.0407 59.1136 38.5118 55.5996 38.5118 51.7171C38.5118 46.8814 40.8866 42.605 44.5145 40.0187H44.5271Z" fill="#A4BC49"/>
<path d="M29.0128 57.5886L22.1328 43.501V55.7967C22.1328 59.425 24.1191 62.5831 27.0515 64.2099C29.207 62.939 30.2471 60.0986 29.019 57.5823L29.0128 57.5886Z" fill="#25602E"/>
<path d="M57.2407 58.173L62.6419 41.6834C60.0854 39.0591 56.5389 37.4324 52.6165 37.4324C49.6088 37.4324 46.8205 38.3919 44.5335 40.025V55.8028C44.5335 58.0269 43.7816 60.0666 42.5347 61.687C45.0911 64.3495 48.669 66.0016 52.6227 66.0016C55.1166 66.0016 57.46 65.3408 59.4901 64.1906C57.5289 63.0278 56.4637 60.575 57.247 58.173H57.2407Z" fill="#68AC45"/>
<path d="M66.6959 51.7171C66.6959 47.8092 65.1419 44.2635 62.6356 41.6836L57.2344 58.1732C56.4512 60.5751 57.5164 63.0216 59.4776 64.1908C63.7822 61.7443 66.6959 57.0802 66.6959 51.7171Z" fill="#35763C"/>
<path d="M44.5271 40.0188C40.8992 42.605 38.5244 46.8752 38.5244 51.7172C38.5244 55.5934 40.0533 59.1137 42.5283 61.6872C43.7752 60.0605 44.5271 58.0207 44.5271 55.803V40.0252V40.0188Z" fill="#458C39"/>
</svg>
