<svg xmlns="http://www.w3.org/2000/svg" xmlns:xlink="http://www.w3.org/1999/xlink" width="36.065" height="36.065" viewBox="0 0 36.065 36.065">
  <defs>
    <clipPath id="clip-path">
      <rect id="사각형_168" data-name="사각형 168" width="36.065" height="36.065" transform="translate(0 0)" fill="none"/>
    </clipPath>
  </defs>
  <g id="ico_twitter" transform="translate(0 0)">
    <g id="그룹_105" data-name="그룹 105" clip-path="url(#clip-path)">
      <path id="패스_239" data-name="패스 239" d="M26.937,36.065H9.129A9.129,9.129,0,0,1,0,26.937V9.128A9.129,9.129,0,0,1,9.129,0H26.937a9.128,9.128,0,0,1,9.128,9.128V26.937a9.128,9.128,0,0,1-9.128,9.128" fill="#3cf"/>
      <path id="패스_240" data-name="패스 240" d="M27.875,12.052a7.985,7.985,0,0,1-1.965.56c.316-.053.78-.625.966-.856a3.594,3.594,0,0,0,.653-1.189c.017-.034.029-.077,0-.1a.111.111,0,0,0-.1.009,10.069,10.069,0,0,1-2.329.892.157.157,0,0,1-.161-.043,1.832,1.832,0,0,0-.2-.208,4.123,4.123,0,0,0-1.128-.692,3.925,3.925,0,0,0-1.731-.278,4.141,4.141,0,0,0-1.642.463A4.226,4.226,0,0,0,18.9,11.689a4.067,4.067,0,0,0-.791,1.585,4.278,4.278,0,0,0-.042,1.672c.012.094,0,.107-.081.094a12.442,12.442,0,0,1-8-4.074c-.094-.107-.144-.107-.221.008a4.057,4.057,0,0,0,.692,4.8c.157.149.318.3.492.433A4.086,4.086,0,0,1,9.4,15.769c-.093-.059-.14-.025-.148.081a2.412,2.412,0,0,0,.025.459,4.106,4.106,0,0,0,2.53,3.272,2.4,2.4,0,0,0,.513.157,4.581,4.581,0,0,1-1.515.047c-.11-.021-.152.034-.11.14a4.261,4.261,0,0,0,3.183,2.665c.144.025.288.025.433.059-.009.013-.017.013-.026.026a5.041,5.041,0,0,1-2.173,1.152,7.775,7.775,0,0,1-3.3.422c-.177-.026-.215-.024-.263,0s-.006.073.051.119c.225.148.454.28.688.407a10.846,10.846,0,0,0,2.207.883A11.754,11.754,0,0,0,22.905,22.99a11.976,11.976,0,0,0,3.158-8.736c0-.125.148-.194.236-.261a7.7,7.7,0,0,0,1.553-1.615.49.49,0,0,0,.1-.309v-.017c0-.051,0-.036-.08,0" fill="#fff"/>
    </g>
  </g>
</svg>
