<svg xmlns="http://www.w3.org/2000/svg" width="151.951" height="147.096" viewBox="0 0 151.951 147.096">
  <g id="slogan_w" transform="translate(-25.641 -37.491)">
    <g id="그룹_7" data-name="그룹 7" transform="translate(25.641 38.878)">
      <path id="패스_78" data-name="패스 78" d="M240.153,49.037l-11.553-1.1.119-1.232,11.553,1.1-.119,1.232Zm-3.55.67a3.393,3.393,0,0,1,1.434.937,1.705,1.705,0,0,1,.407,1.308,1.679,1.679,0,0,1-.641,1.2,3.494,3.494,0,0,1-1.586.645,8.962,8.962,0,0,1-2.382.058,9.25,9.25,0,0,1-2.342-.508,3.5,3.5,0,0,1-1.441-.937,1.675,1.675,0,0,1-.411-1.294,1.711,1.711,0,0,1,.649-1.207,3.426,3.426,0,0,1,1.593-.649,9.092,9.092,0,0,1,2.393-.043,8.988,8.988,0,0,1,2.321.494Zm2.45-3.24-8.8-.84.119-1.24,8.8.84-.119,1.24Zm.216-3.077-7.189-.685-.252,2.627-1.535-.148.368-3.845,8.724.832Zm-6.667,7a2.277,2.277,0,0,0-.987.288.746.746,0,0,0-.378.587.731.731,0,0,0,.259.645,2.328,2.328,0,0,0,.915.465,9.606,9.606,0,0,0,3.088.3,2.314,2.314,0,0,0,.991-.285.756.756,0,0,0,.389-.58.768.768,0,0,0-.27-.645,2.294,2.294,0,0,0-.923-.472,8.107,8.107,0,0,0-1.521-.274,8.248,8.248,0,0,0-1.564-.022Zm2.595-2.566-1.521-.144.234-2.45,1.521.144Z" transform="translate(-155.461 -41.34)" fill="#fff"/>
      <path id="패스_79" data-name="패스 79" d="M277.453,62.057l-8.663-2.879.378-1.135,8.663,2.883-.378,1.135Zm.342-2.126-6.865-2.285-.407,1.229-1.47-.49.764-2.3,6.865,2.285.256-.768-6.872-2.285.375-1.128,8.342,2.775-.987,2.966Zm2.652-3.42-10.995-3.658.389-1.175,10.991,3.658-.389,1.175Zm-.764-2.411-8.209-2.732,1.25-3.759,8.209,2.732Zm-6.357-3.405,5.268,1.751.479-1.434-5.268-1.751Zm1.87,5.658-1.481-.494L274.3,54.1l1.481.494Z" transform="translate(-181.168 -45.351)" fill="#fff"/>
      <path id="패스_80" data-name="패스 80" d="M313.232,79.4l-9.932-6.05.667-1.1L313.9,78.3Zm-3.2-11.629,5.031,3.063,1.085-1.78,1.33.811-3.423,5.622-7.7-4.692,3.423-5.622,1.341.818-1.085,1.78Zm-.641,8.184-1.315-.8,1.661-2.728,1.315.8Zm3.986-2.346,1.041-1.708-5.031-3.063-1.041,1.708Z" transform="translate(-203.242 -56.583)" fill="#fff"/>
      <path id="패스_81" data-name="패스 81" d="M344.3,105.66l-8.339-8.1.883-.908,8.339,8.1-.883.908Zm-3.1-4.1-1.106-1.074,1.614-1.661,1.106,1.074Zm5.723-3.733a3.319,3.319,0,0,1,.479,1.643,1.85,1.85,0,0,1-.541,1.3,1.88,1.88,0,0,1-1.3.591,3.312,3.312,0,0,1-1.661-.422,7.876,7.876,0,0,1-1.845-1.366,8,8,0,0,1-1.431-1.816,3.319,3.319,0,0,1-.468-1.647,1.887,1.887,0,0,1,.555-1.315,1.844,1.844,0,0,1,1.286-.58,3.31,3.31,0,0,1,1.654.429,7.9,7.9,0,0,1,1.841,1.391,7.6,7.6,0,0,1,1.427,1.787Zm-3.431-1.834a2.079,2.079,0,0,0-.937-.342.833.833,0,0,0-.688.27.842.842,0,0,0-.252.7,2.1,2.1,0,0,0,.364.933,6.528,6.528,0,0,0,.959,1.128,6.374,6.374,0,0,0,1.139.912,2.1,2.1,0,0,0,.941.335.867.867,0,0,0,.7-.267.857.857,0,0,0,.241-.7,2.075,2.075,0,0,0-.364-.93,6.42,6.42,0,0,0-.948-1.11,6.658,6.658,0,0,0-1.15-.926Zm6.231,3.243L342.176,91.9l.883-.908,7.546,7.333Zm-2.883-3.477-1.106-1.074,1.618-1.665,1.106,1.074Z" transform="translate(-224.133 -73.098)" fill="#fff"/>
      <path id="패스_82" data-name="패스 82" d="M369.175,140.426l-4.825-7.441,1.074-.7,4.825,7.441Zm-3.539-6.414-.85-1.312,3-1.946.85,1.312Zm5.737-4.436a5.523,5.523,0,0,1-2.054.187,4.417,4.417,0,0,1-1.914-.649l.53-1.369a4.238,4.238,0,0,0,1.629.591,4.393,4.393,0,0,0,1.643-.068,4.629,4.629,0,0,0,1.449-.616l1.463-.951.67,1.034-1.463.951a7.222,7.222,0,0,1-1.957.886Zm-.98,6.613-.811-1.25,7.5-4.865.811,1.25Zm2-6.241a3.958,3.958,0,0,0-.652,1.359,3.846,3.846,0,0,0-.076,1.6l-1.488-.068a4.125,4.125,0,0,1,.162-1.9,5.122,5.122,0,0,1,.941-1.676,6.647,6.647,0,0,1,1.542-1.344l1.463-.951.656,1.009-1.463.951a4.127,4.127,0,0,0-1.088,1.016Zm-.926,8.577-.811-1.25,7.989-5.182.811,1.25Zm2.44-5.834-1.178-1.82,1.074-.7,1.178,1.82Z" transform="translate(-242.292 -95.94)" fill="#fff"/>
      <path id="패스_83" data-name="패스 83" d="M391.283,168.21a23.421,23.421,0,0,0,1.113,2.259l-1.128.584q-.654-1.184-1.175-2.389t-1.132-2.89l-.342-.941,1.2-.44.342.941c.418,1.15.793,2.108,1.117,2.872Zm-1.982,7.106-.53-1.456,11.975-4.368.53,1.456Zm8.328-7.441-1.5-4.108-6.162,2.249-.537-1.474,7.355-2.681,2.036,5.582-1.189.432Zm-3.481.742-1.456-3.993,1.164-.425,1.456,3.993Zm1.16,3.077-.886-2.432,1.189-.432.886,2.432Z" transform="translate(-257.816 -118.429)" fill="#fff"/>
      <path id="패스_84" data-name="패스 84" d="M364.225,335.77l6.1,8.915L369,346.509l-10.346-3.121,1.157-1.578,8.151,2.591.05-.068-4.937-6.987,1.15-1.575Zm-1.142,8.332-1.186-.868,3.171-4.335,1.186.868Z" transform="translate(-238.646 -229.669)" fill="#fff"/>
      <path id="패스_85" data-name="패스 85" d="M343.342,363.88l1.29-1.24,5.294,5.514-1.232,1.186-.9-.933-.061.058a2.171,2.171,0,0,1,.09,1.333,2.61,2.61,0,0,1-.771,1.25,2.76,2.76,0,0,1-1.229.717,2.219,2.219,0,0,1-1.337-.083,3.485,3.485,0,0,1-1.3-.9l-3.373-3.514,1.29-1.24,3.182,3.315a1.983,1.983,0,0,0,.732.508,1.281,1.281,0,0,0,.76.05,1.553,1.553,0,0,0,.714-.414,1.707,1.707,0,0,0,.468-.732,1.385,1.385,0,0,0-.007-.829,2.019,2.019,0,0,0-.5-.818l-3.106-3.232Z" transform="translate(-226.595 -246.856)" fill="#fff"/>
      <path id="패스_86" data-name="패스 86" d="M334.024,387.68l-1.434,1.067-4.569-6.13,1.434-1.067Zm.432,1.2a1.109,1.109,0,0,1,.512.058.862.862,0,0,1,.4.306.931.931,0,0,1,.18.479.99.99,0,0,1-.09.508,1.122,1.122,0,0,1-.832.62.98.98,0,0,1-.519-.054.894.894,0,0,1-.411-.31.836.836,0,0,1-.173-.476,1.064,1.064,0,0,1,.1-.512,1.069,1.069,0,0,1,.832-.62Z" transform="translate(-219.054 -258.951)" fill="#fff"/>
      <path id="패스_87" data-name="패스 87" d="M307.079,397.25l-1.514.8-.6-1.146-.076.04a2.085,2.085,0,0,1-.227,1.276,2.3,2.3,0,0,1-.991.941,2.481,2.481,0,0,1-.894.285,1.862,1.862,0,0,1-.847-.1,2.051,2.051,0,0,1-.735-.461l-.068.036a2.055,2.055,0,0,1-.1.886,2.289,2.289,0,0,1-.476.8,2.914,2.914,0,0,1-.814.62,2.533,2.533,0,0,1-1.243.317,2.038,2.038,0,0,1-1.16-.4,3.126,3.126,0,0,1-.93-1.124l-2.386-4.533,1.589-.836,2.263,4.3a1.355,1.355,0,0,0,.8.742,1.33,1.33,0,0,0,1.005-.137,1.4,1.4,0,0,0,.566-.508,1.234,1.234,0,0,0,.18-.677,1.751,1.751,0,0,0-.2-.75L298,393.391l1.55-.814,2.3,4.368a1.428,1.428,0,0,0,.461.533,1.1,1.1,0,0,0,.613.195,1.418,1.418,0,0,0,.67-.173,1.316,1.316,0,0,0,.541-.508,1.429,1.429,0,0,0,.191-.732,1.751,1.751,0,0,0-.216-.822l-2.166-4.115,1.582-.832,3.56,6.764Z" transform="translate(-197.306 -264.67)" fill="#fff"/>
      <path id="패스_88" data-name="패스 88" d="M271.545,412.354q.135-.054.4-.151c.328-.115.627-.223.894-.328a1.961,1.961,0,0,0,.886-.613.908.908,0,0,0,.13-.84.886.886,0,0,0-.321-.476,1.041,1.041,0,0,0-.537-.195,1.676,1.676,0,0,0-.67.09,2.022,2.022,0,0,0-.836.472,1.557,1.557,0,0,0-.436.732,1.483,1.483,0,0,0,.018.822l.721,2.335a1.288,1.288,0,0,0,.335.573.943.943,0,0,0,.566.252,1.953,1.953,0,0,0,.771-.094,1.669,1.669,0,0,0,.84-.508,1.1,1.1,0,0,0,.263-.768l1.672-.5a2.253,2.253,0,0,1-.119,1.261,2.7,2.7,0,0,1-.829,1.1,4.234,4.234,0,0,1-1.474.75,4.546,4.546,0,0,1-1.528.2,2.4,2.4,0,0,1-1.344-.468,2.515,2.515,0,0,1-.879-1.344l-1.477-4.9,1.643-.5.306,1.009.054-.014a2.142,2.142,0,0,1,.555-1.077,2.7,2.7,0,0,1,1.254-.732,3.1,3.1,0,0,1,1.337-.126,2.106,2.106,0,0,1,1.1.486,2.254,2.254,0,0,1,.681,1.1,1.909,1.909,0,0,1-.267,1.867,4.161,4.161,0,0,1-1.791,1.178l-.7.259c-.259.094-.508.184-.753.267-.155.05-.314.1-.476.159l-.357-1.128c.166-.065.3-.115.386-.148Z" transform="translate(-181.04 -276.055)" fill="#fff"/>
      <path id="패스_89" data-name="패스 89" d="M215.451,427.466l-3.813-.155a4.129,4.129,0,0,1-1.935-.508,2.879,2.879,0,0,1-1.178-1.243,3.6,3.6,0,0,1-.342-1.773,3.516,3.516,0,0,1,.49-1.723,2.951,2.951,0,0,1,1.283-1.139,4.179,4.179,0,0,1,1.986-.353l2.533.1-.061,1.514-2.285-.094a2.356,2.356,0,0,0-1.132.191,1.513,1.513,0,0,0-.685.62,2.143,2.143,0,0,0-.256.959,2.173,2.173,0,0,0,.18.984,1.469,1.469,0,0,0,.634.667,2.465,2.465,0,0,0,1.117.274l1.7.068.35-8.649,1.827.076-.414,10.184Z" transform="translate(-142.399 -281.761)" fill="#fff"/>
      <path id="패스_90" data-name="패스 90" d="M188.7,422.121,187,421.8l.234-1.254-.083-.014a1.906,1.906,0,0,1-.883.876,1.949,1.949,0,0,1-1.218.144,3.315,3.315,0,0,1-.634-.169l.3-1.625a2.21,2.21,0,0,0,.364.148,3.747,3.747,0,0,0,.44.112,1.824,1.824,0,0,0,.908-.047,1.587,1.587,0,0,0,.714-.468,1.65,1.65,0,0,0,.378-.8l.822-4.422,1.759.328-1.4,7.514Z" transform="translate(-127.202 -279.887)" fill="#fff"/>
      <path id="패스_91" data-name="패스 91" d="M165.439,408.7a3.306,3.306,0,0,1,.778,1.715,4.493,4.493,0,0,1-.223,2.1,4.551,4.551,0,0,1-1.081,1.823,3.282,3.282,0,0,1-1.654.912,4.045,4.045,0,0,1-3.676-1.218,3.239,3.239,0,0,1-.771-1.719,5.041,5.041,0,0,1,1.3-3.924,3.263,3.263,0,0,1,1.643-.912,4.045,4.045,0,0,1,3.676,1.218Zm-3.2.274a1.978,1.978,0,0,0-.872.659,3.728,3.728,0,0,0-.6,1.157,3.938,3.938,0,0,0-.213,1.286,2.014,2.014,0,0,0,.3,1.052,1.528,1.528,0,0,0,.843.631,1.614,1.614,0,0,0,1.081.007,1.986,1.986,0,0,0,.883-.659,3.963,3.963,0,0,0,.811-2.443,1.947,1.947,0,0,0-.314-1.052,1.6,1.6,0,0,0-.872-.638A1.551,1.551,0,0,0,162.243,408.97Z" transform="translate(-110.798 -275.484)" fill="#fff"/>
      <path id="패스_92" data-name="패스 92" d="M136.533,402.3l3.924,1.942-.613,1.236-3.924-1.942Zm-.076,3.542,3.182-6.436a1.129,1.129,0,0,0,.144-.53.575.575,0,0,0-.137-.368,1.158,1.158,0,0,0-.353-.263c-.061-.036-.137-.072-.231-.115s-.184-.079-.274-.119l-.213-.079.652-1.319a6.132,6.132,0,0,1,.944.378,3.1,3.1,0,0,1,1,.757,1.858,1.858,0,0,1,.447,1.005,2.1,2.1,0,0,1-.245,1.186l-3.312,6.692-1.607-.8Z" transform="translate(-96.18 -268.584)" fill="#fff"/>
      <path id="패스_93" data-name="패스 93" d="M121.089,387.246a3.2,3.2,0,0,1,.3,1.852,4.528,4.528,0,0,1-.789,1.971,4.588,4.588,0,0,1-1.542,1.47,3.325,3.325,0,0,1-1.834.447,3.608,3.608,0,0,1-1.849-.656,3.74,3.74,0,0,1-1.225-1.33,3.02,3.02,0,0,1-.324-1.766,4.5,4.5,0,0,1,.818-2.047l.317-.465,5.186,3.5-.681,1.009-3.762-2.541a2.047,2.047,0,0,0-.335.89,1.562,1.562,0,0,0,.148.876,1.782,1.782,0,0,0,.623.7,1.795,1.795,0,0,0,1.888.115,2.053,2.053,0,0,0,.739-.659l.584-.861a2.508,2.508,0,0,0,.44-1.088,1.787,1.787,0,0,0-.155-.995,1.991,1.991,0,0,0-.71-.789,2.059,2.059,0,0,0-.627-.3,1.686,1.686,0,0,0-.587-.058,1.308,1.308,0,0,0-.5.151l-1.459-.984a2.631,2.631,0,0,1,1.153-.62,2.9,2.9,0,0,1,1.373.007,4.369,4.369,0,0,1,1.452.659,3.884,3.884,0,0,1,1.369,1.5Z" transform="translate(-82.037 -261.159)" fill="#fff"/>
      <path id="패스_94" data-name="패스 94" d="M98.377,369.909a3.232,3.232,0,0,1-.022,1.885,4.59,4.59,0,0,1-1.081,1.8,4.521,4.521,0,0,1-1.733,1.2,3.351,3.351,0,0,1-1.885.148,3.645,3.645,0,0,1-1.744-.951,3.891,3.891,0,0,1-.973-1.366,2.737,2.737,0,0,1-.187-1.488,2.912,2.912,0,0,1,.631-1.384l1.25,1.168a1.761,1.761,0,0,0-.259.677,1.481,1.481,0,0,0,.068.7,1.577,1.577,0,0,0,.429.631,1.655,1.655,0,0,0,.919.45,1.934,1.934,0,0,0,1.067-.18,3.4,3.4,0,0,0,1.074-.8,3.514,3.514,0,0,0,.746-1.139,1.94,1.94,0,0,0,.115-1.081,1.762,1.762,0,0,0-1.146-1.272,1.409,1.409,0,0,0-.692-.043,1.688,1.688,0,0,0-.685.31l-1.25-1.168a3.026,3.026,0,0,1,1.33-.724,2.776,2.776,0,0,1,1.492.065,4.117,4.117,0,0,1,2.537,2.573Z" transform="translate(-67.267 -249.771)" fill="#fff"/>
      <path id="패스_95" data-name="패스 95" d="M71.88,356.311l5.557-4.548a1.145,1.145,0,0,0,.35-.422.6.6,0,0,0,.029-.393,1.15,1.15,0,0,0-.213-.386,1.988,1.988,0,0,0-.162-.2l-.2-.223-.159-.162,1.139-.93a5.783,5.783,0,0,1,.7.735,3.08,3.08,0,0,1,.6,1.1,1.884,1.884,0,0,1-.007,1.1,2.1,2.1,0,0,1-.714.98l-5.78,4.728-1.135-1.387Zm1.535-3.193,2.771,3.387-1.067.872-2.771-3.387Z" transform="translate(-55.217 -238.163)" fill="#fff"/>
      <path id="패스_96" data-name="패스 96" d="M59.709,343.843a1.013,1.013,0,0,1-.086.508.85.85,0,0,1-.328.386.9.9,0,0,1-.486.155,1.008,1.008,0,0,1-.5-.119,1.073,1.073,0,0,1-.393-.36,1.086,1.086,0,0,1-.184-.5,1.012,1.012,0,0,1,.083-.515.9.9,0,0,1,.332-.393.865.865,0,0,1,.483-.148,1.057,1.057,0,0,1,.5.126,1.07,1.07,0,0,1,.4.353,1.057,1.057,0,0,1,.18.512Zm1.225-.368-.987-1.488,6.368-4.227.987,1.488Z" transform="translate(-46.163 -230.942)" fill="#fff"/>
      <path id="패스_97" data-name="패스 97" d="M59.649,319.306a3.284,3.284,0,0,1-.67,1.762,4.963,4.963,0,0,1-3.7,1.838,3.3,3.3,0,0,1-1.813-.53,4.042,4.042,0,0,1-1.719-3.467,3.266,3.266,0,0,1,.674-1.759,4.624,4.624,0,0,1,1.658-1.319,4.576,4.576,0,0,1,2.047-.523,3.256,3.256,0,0,1,1.805.526,4.042,4.042,0,0,1,1.719,3.467ZM57.2,317.227a1.953,1.953,0,0,0-1.081-.155,4.153,4.153,0,0,0-2.306,1.146,1.97,1.97,0,0,0-.533.959,1.554,1.554,0,0,0,.144,1.045,1.606,1.606,0,0,0,.757.771,1.993,1.993,0,0,0,1.092.162,3.817,3.817,0,0,0,1.25-.382,3.924,3.924,0,0,0,1.059-.764,1.976,1.976,0,0,0,.526-.966,1.611,1.611,0,0,0-.162-1.067,1.563,1.563,0,0,0-.742-.75Z" transform="translate(-42.33 -216.582)" fill="#fff"/>
      <path id="패스_98" data-name="패스 98" d="M48.462,290.895l.523,1.708-7.308,2.238-.5-1.636,1.24-.378-.025-.079a2.171,2.171,0,0,1-1.232-.523,2.621,2.621,0,0,1-.771-1.25,2.765,2.765,0,0,1-.086-1.42,2.226,2.226,0,0,1,.677-1.157,3.48,3.48,0,0,1,1.391-.76l4.656-1.427.523,1.708-4.4,1.344a1.958,1.958,0,0,0-.782.425,1.3,1.3,0,0,0-.389.656,1.555,1.555,0,0,0,.047.825,1.712,1.712,0,0,0,.443.75,1.384,1.384,0,0,0,.742.368,2.032,2.032,0,0,0,.959-.079l4.288-1.312Z" transform="translate(-34.981 -197.968)" fill="#fff"/>
      <path id="패스_99" data-name="패스 99" d="M28.123,240.613a2.2,2.2,0,0,0-.638.872,2.77,2.77,0,0,0-.191,1.146,2.667,2.667,0,0,0,.468,1.467,2.767,2.767,0,0,0,1.261.966,5.4,5.4,0,0,0,3.888-.133,2.771,2.771,0,0,0,1.186-1.045,2.63,2.63,0,0,0,.368-1.492,2.826,2.826,0,0,0-.259-1.117,2.149,2.149,0,0,0-.674-.832,2.312,2.312,0,0,0-1.02-.425l-.054-1.849a4.1,4.1,0,0,1,1.805.652,3.963,3.963,0,0,1,1.312,1.452,4.958,4.958,0,0,1-.014,4.512A4.339,4.339,0,0,1,33.8,246.5a6.132,6.132,0,0,1-2.768.692,6.067,6.067,0,0,1-2.818-.512,4.346,4.346,0,0,1-1.867-1.6,4.6,4.6,0,0,1-.706-2.375A4.909,4.909,0,0,1,26,240.646a3.757,3.757,0,0,1,1.178-1.553,4.246,4.246,0,0,1,1.9-.814l.061,1.849a2.288,2.288,0,0,0-1.02.479Z" transform="translate(-25.641 -167.24)" fill="#fff"/>
      <path id="패스_100" data-name="패스 100" d="M41.7,214.594a3.212,3.212,0,0,1-1.532,1.085,4.5,4.5,0,0,1-2.119.155,4.59,4.59,0,0,1-2-.739,3.329,3.329,0,0,1-1.207-1.452,3.609,3.609,0,0,1-.223-1.95,3.712,3.712,0,0,1,.656-1.683,3.047,3.047,0,0,1,1.445-1.067,4.517,4.517,0,0,1,2.2-.162l.559.079-.872,6.195-1.207-.169.634-4.494a2.021,2.021,0,0,0-.948.09,1.581,1.581,0,0,0-.724.515,1.756,1.756,0,0,0-.357.868,1.8,1.8,0,0,0,.724,1.748,2.056,2.056,0,0,0,.919.375l1.031.144a2.483,2.483,0,0,0,1.171-.083,1.783,1.783,0,0,0,.825-.577,2.049,2.049,0,0,0,.4-.984,2.13,2.13,0,0,0-.007-.7,1.614,1.614,0,0,0-.205-.555,1.325,1.325,0,0,0-.357-.389l.245-1.741a2.658,2.658,0,0,1,1.063.764,2.894,2.894,0,0,1,.6,1.236,4.413,4.413,0,0,1,.047,1.6,3.912,3.912,0,0,1-.75,1.892Z" transform="translate(-31.359 -148.403)" fill="#fff"/>
      <path id="패스_101" data-name="패스 101" d="M46.847,186l-.53,1.708-7.3-2.27.508-1.632,1.236.386.025-.079a2.146,2.146,0,0,1-.721-1.124,2.611,2.611,0,0,1,.068-1.467,2.763,2.763,0,0,1,.732-1.222,2.239,2.239,0,0,1,1.211-.573,3.5,3.5,0,0,1,1.578.155l4.652,1.449-.53,1.708-4.389-1.366a1.989,1.989,0,0,0-.886-.09,1.288,1.288,0,0,0-.692.324,1.558,1.558,0,0,0-.425.706,1.763,1.763,0,0,0-.058.868,1.4,1.4,0,0,0,.4.724,2.031,2.031,0,0,0,.836.476l4.281,1.333Z" transform="translate(-34.199 -129.839)" fill="#fff"/>
      <path id="패스_102" data-name="패스 102" d="M46.214,157.223l6.494,3.063a1.121,1.121,0,0,0,.533.133.6.6,0,0,0,.368-.141,1.108,1.108,0,0,0,.256-.357,1.623,1.623,0,0,0,.108-.234c.04-.094.076-.184.115-.277l.076-.213,1.33.627a6.166,6.166,0,0,1-.364.951,3.058,3.058,0,0,1-.739,1.013,1.912,1.912,0,0,1-1,.468,2.088,2.088,0,0,1-1.189-.223l-6.753-3.186.768-1.622Zm3.542.014L47.89,161.2l-1.247-.587,1.867-3.96Z" transform="translate(-38.312 -115.097)" fill="#fff"/>
      <path id="패스_103" data-name="패스 103" d="M68.182,141.428a3.179,3.179,0,0,1-1.845.335,4.488,4.488,0,0,1-1.986-.753,4.534,4.534,0,0,1-1.5-1.514,3.35,3.35,0,0,1-.479-1.827A3.593,3.593,0,0,1,63,135.807a3.731,3.731,0,0,1,1.308-1.25,3.025,3.025,0,0,1,1.759-.357,4.507,4.507,0,0,1,2.061.782l.472.306-3.409,5.247-1.02-.663,2.472-3.809a2,2,0,0,0-.9-.317,1.585,1.585,0,0,0-.872.162,1.768,1.768,0,0,0-.692.638,1.79,1.79,0,0,0-.079,1.888,2.1,2.1,0,0,0,.674.728l.872.566a2.5,2.5,0,0,0,1.1.418,1.747,1.747,0,0,0,.991-.177,2.007,2.007,0,0,0,.778-.724,2.092,2.092,0,0,0,.285-.634,1.688,1.688,0,0,0,.047-.591,1.38,1.38,0,0,0-.159-.5l.959-1.477a2.609,2.609,0,0,1,.638,1.142,2.888,2.888,0,0,1,.018,1.373,4.368,4.368,0,0,1-.631,1.467,3.942,3.942,0,0,1-1.477,1.4Z" transform="translate(-49.137 -100.729)" fill="#fff"/>
      <path id="패스_104" data-name="패스 104" d="M76.917,115.59l1.132-1.308.962.832.054-.065a1.889,1.889,0,0,1-.31-1.2,1.959,1.959,0,0,1,.49-1.124,3.455,3.455,0,0,1,.465-.461l1.25,1.081a2.245,2.245,0,0,0-.31.238,4.435,4.435,0,0,0-.317.324,1.813,1.813,0,0,0-.418.807,1.566,1.566,0,0,0,.043.854,1.641,1.641,0,0,0,.5.732l3.4,2.944-1.171,1.351-5.78-5Z" transform="translate(-58.435 -86.703)" fill="#fff"/>
    </g>
    <path id="패스_105" data-name="패스 105" d="M151.3,76.271a9.911,9.911,0,0,1-4.551.714,5.428,5.428,0,0,1-3.063-1.341,2.418,2.418,0,0,1-.566-3.005,7.7,7.7,0,0,0,.937-4.1c-.036-.659-.159-1.315-.2-1.978a4.855,4.855,0,0,1,.537-2.768,2.751,2.751,0,0,1,3.514-1.276,5.448,5.448,0,0,1,2.332,1.827c.436.548.84,1.128,1.315,1.643a6.9,6.9,0,0,0,2.991,1.906,2.56,2.56,0,0,1,1.787,1.708,3.367,3.367,0,0,1-.094,1.96,6.265,6.265,0,0,1-2.494,3.359A12.45,12.45,0,0,1,151.3,76.271Z" transform="translate(-74.953 -15.872)" fill="#766be1"/>
    <path id="패스_106" data-name="패스 106" d="M122.3,67.961a7.081,7.081,0,0,1-.523-3.16,3.257,3.257,0,0,1,.447-1.467,1.642,1.642,0,0,1,1.96-.75,3.825,3.825,0,0,1,1.9,1.384,7.5,7.5,0,0,1,1.726,4.933,3.463,3.463,0,0,1-.364,1.539,1.683,1.683,0,0,1-2.141.9,4.112,4.112,0,0,1-1.892-1.438,7.832,7.832,0,0,1-1.121-1.939Z" transform="translate(-61.481 -15.999)" fill="#766be1"/>
    <path id="패스_107" data-name="패스 107" d="M171.687,48.2a7.035,7.035,0,0,1,.508,3.3,3.24,3.24,0,0,1-.425,1.33,1.654,1.654,0,0,1-1.87.782,3.217,3.217,0,0,1-1.568-.937,7.466,7.466,0,0,1-2.162-5.42,3.316,3.316,0,0,1,.371-1.535,1.692,1.692,0,0,1,2.234-.85,4.255,4.255,0,0,1,1.787,1.4,7.893,7.893,0,0,1,1.124,1.939Z" transform="translate(-89.887 -4.633)" fill="#766be1"/>
    <path id="패스_108" data-name="패스 108" d="M152.411,40.514a5.618,5.618,0,0,1,.4,3.139,2.942,2.942,0,0,1-.288.811,1.417,1.417,0,0,1-1.769.71,3.232,3.232,0,0,1-1.542-1.1,6.291,6.291,0,0,1-1.542-4.674,3.1,3.1,0,0,1,.335-1.11,1.4,1.4,0,0,1,1.809-.7,3.4,3.4,0,0,1,1.672,1.308c.364.5.659,1.056.984,1.586Z" transform="translate(-78.035)" fill="#766be1"/>
    <path id="패스_109" data-name="패스 109" d="M135.558,46.908a6.212,6.212,0,0,1,.5,3.481,2.07,2.07,0,0,1-.659,1.236,1.429,1.429,0,0,1-1.521.2,3.658,3.658,0,0,1-1.661-1.362,6.382,6.382,0,0,1-1.323-4.018,3.882,3.882,0,0,1,.274-1.294,1.456,1.456,0,0,1,2.047-.818,3.458,3.458,0,0,1,1.492,1.211c.371.515.681,1.077.854,1.359Z" transform="translate(-67.322 -4.282)" fill="#766be1"/>
    <g id="그룹_8" data-name="그룹 8" transform="translate(153.84 112.517)">
      <path id="패스_110" data-name="패스 110" d="M381.932,255.126a9.85,9.85,0,0,1,2.364-3.953,5.466,5.466,0,0,1,2.991-1.5,2.415,2.415,0,0,1,2.67,1.485,7.72,7.72,0,0,0,2.555,3.348c.533.393,1.114.721,1.65,1.11a4.844,4.844,0,0,1,1.78,2.184,2.754,2.754,0,0,1-1.268,3.517,5.421,5.421,0,0,1-2.894.623c-.7-.014-1.405-.076-2.1-.04a6.9,6.9,0,0,0-3.38,1.081,2.549,2.549,0,0,1-2.454.281,3.36,3.36,0,0,1-1.445-1.326,6.274,6.274,0,0,1-.987-4.065A12.262,12.262,0,0,1,381.932,255.126Z" transform="translate(-381.393 -248.217)" fill="#766be1"/>
      <path id="패스_111" data-name="패스 111" d="M418.887,246.067a7.041,7.041,0,0,1,2.764,1.622,3.221,3.221,0,0,1,.84,1.283,1.642,1.642,0,0,1-.677,1.986,3.8,3.8,0,0,1-2.281.577,7.525,7.525,0,0,1-4.9-1.831,3.522,3.522,0,0,1-.951-1.261,1.683,1.683,0,0,1,.677-2.22,4.132,4.132,0,0,1,2.317-.533A7.934,7.934,0,0,1,418.887,246.067Z" transform="translate(-401.937 -245.688)" fill="#766be1"/>
      <path id="패스_112" data-name="패스 112" d="M402.5,296.676a7.039,7.039,0,0,1-2.861-1.719,3.142,3.142,0,0,1-.746-1.178,1.646,1.646,0,0,1,.595-1.935,3.213,3.213,0,0,1,1.726-.605,7.464,7.464,0,0,1,5.55,1.805,3.361,3.361,0,0,1,.944,1.268,1.689,1.689,0,0,1-.775,2.259,4.264,4.264,0,0,1-2.216.479,7.8,7.8,0,0,1-2.209-.375Z" transform="translate(-392.522 -274.809)" fill="#766be1"/>
      <path id="패스_113" data-name="패스 113" d="M423.054,287.559a5.607,5.607,0,0,1-2.663-1.7,2.968,2.968,0,0,1-.44-.742,1.416,1.416,0,0,1,.587-1.813,3.23,3.23,0,0,1,1.834-.479,6.29,6.29,0,0,1,4.58,1.805,3.083,3.083,0,0,1,.638.969,1.4,1.4,0,0,1-.62,1.838,3.4,3.4,0,0,1-2.072.45c-.62-.043-1.232-.169-1.849-.259a.318.318,0,0,1,.007-.061Z" transform="translate(-405.978 -269.439)" fill="#766be1"/>
      <path id="패스_114" data-name="패스 114" d="M428.931,270.5a6.209,6.209,0,0,1-2.995-1.841,2.042,2.042,0,0,1-.526-1.3,1.436,1.436,0,0,1,.818-1.3,3.668,3.668,0,0,1,2.108-.407,6.4,6.4,0,0,1,3.935,1.553,3.874,3.874,0,0,1,.818,1.038,1.45,1.45,0,0,1-.681,2.094,3.428,3.428,0,0,1-1.885.371C429.889,270.667,429.259,270.549,428.931,270.5Z" transform="translate(-409.548 -258.454)" fill="#766be1"/>
    </g>
  </g>
</svg>
