<svg xmlns="http://www.w3.org/2000/svg" width="128" height="128" viewBox="0 0 128 128">
  <g id="그룹_119" data-name="그룹 119" transform="translate(-1795 7051)">
    <rect id="사각형_190" data-name="사각형 190" width="128" height="128" transform="translate(1795 -7051)" fill="#fff"/>
    <g id="그룹_118" data-name="그룹 118" transform="translate(323 -124.185)">
      <path id="패스_246" data-name="패스 246" d="M80.981,117.7l-1.14-.694a148.829,148.829,0,0,1-51.4-52.432,36.964,36.964,0,0,1-4.375-25.1c3.426-18.228,18.284-23.006,18.914-23.2.991-.319,2-.609,3.008-.857a37.674,37.674,0,0,1,20.174.1c.786.212,10.13,2.9,15.708,11.333a2.125,2.125,0,0,1-3.546,2.343c-4.821-7.291-13.195-9.556-13.28-9.577l-.071-.021a33.527,33.527,0,0,0-17.951-.057c-.913.227-1.848.5-2.768.793-.545.17-13.074,4.3-16.012,19.933a32.729,32.729,0,0,0,3.893,22.213,144.5,144.5,0,0,0,48.772,50.2c4.665-3.143,23.027-15.948,35.138-30.573l.262-.311.361-.2c.177-.092,17.456-9.563,24.251-17.888a17.9,17.9,0,0,0,2.209-7.277c.05-.524,1.069-12.777-6.781-14.4a17.947,17.947,0,0,0-7.985,2.527l-1.656.927L125.6,43.941a69.341,69.341,0,0,0-7.928-8.926A20.179,20.179,0,0,0,100.737,29.8c-.878.149-1.763.34-2.647.573l-.12.028a43.234,43.234,0,0,0-16.316,8.077c-.538.439-1.1.857-1.656,1.267l-.333.248c-2.492,1.862-8.565,7.433-11.121,18.957-.134.984-1.954,15.177,6.236,23.006L75,82.2c.3.389,7.624,9.627,16.854,3.32.283-.212,8.211-6.35,4.183-22.227a2.125,2.125,0,1,1,4.12-1.048C104.935,81.075,94.735,88.678,94.3,89c-10.009,6.845-19.063.389-22.567-4.084C61.8,75.278,64.254,58.926,64.36,58.233l.021-.127c2.853-12.968,9.861-19.367,12.742-21.519l.34-.255c.51-.382,1.019-.757,1.515-1.161a47.072,47.072,0,0,1,18.065-8.926c.991-.262,2-.481,2.994-.651a24.433,24.433,0,0,1,20.528,6.3,73.189,73.189,0,0,1,7.369,8.084,20,20,0,0,1,8.728-2.216l.283.035c9.422,1.734,10.979,12.749,10.413,18.992a21.465,21.465,0,0,1-2.945,9.315l-.113.156c-6.8,8.4-22.581,17.364-25.242,18.836C104.73,102.255,83.027,116.355,82.1,116.95l-1.118.722Z" transform="translate(1450.54 -6926.091)" fill="#766be1"/>
      <g id="그룹_114" data-name="그룹 114" transform="translate(1579.556 -6886.315)">
        <path id="패스_247" data-name="패스 247" d="M180.948,52.221a5.328,5.328,0,0,0,1.187,6.35c3.063,3.115,9.533.344,9.533.344s-3.115-7.089-8.509-6.866C180.457,52.161,180.948,52.221,180.948,52.221Z" transform="translate(-177.806 -49.459)" fill="#766be1"/>
        <path id="패스_248" data-name="패스 248" d="M185.89,62.221a8.14,8.14,0,0,1-6.014-2.263,8.008,8.008,0,0,1-1.91-8.784c.344-1.944,2.271-2.022,4.663-2.125,7.072-.318,10.823,8.044,10.978,8.406l1.05,2.383-2.392,1.024a17.546,17.546,0,0,1-6.375,1.359Zm-3.355-7.993a3.187,3.187,0,0,0,1.024,2.125c.749.766,2.263.809,3.717.585-1.075-1.385-2.616-2.788-4.422-2.727-.112,0-.215.009-.318.017Z" transform="translate(-177.388 -49.04)" fill="#766be1"/>
      </g>
      <g id="그룹_115" data-name="그룹 115" transform="translate(1556.165 -6884.683)">
        <path id="패스_249" data-name="패스 249" d="M146.11,56.57s-1.85.13-.92,2.97a2.852,2.852,0,0,0,3.63,1.98s1.45-.4.59-3.56a2.6,2.6,0,0,0-3.3-1.38Z" transform="translate(-142.428 -53.917)" fill="#766be1"/>
        <path id="패스_250" data-name="패스 250" d="M147.97,64.13a5.236,5.236,0,0,1-5.16-3.82,5.113,5.113,0,0,1,.31-4.58,3.831,3.831,0,0,1,2.46-1.61,5.084,5.084,0,0,1,6.14,2.89l.1.29c1.38,5.08-1.65,6.39-2.25,6.6h0a5.224,5.224,0,0,1-1.6.24Z" transform="translate(-142.428 -53.917)" fill="#766be1"/>
      </g>
      <path id="패스_251" data-name="패스 251" d="M74.063,77.93S57.365,79.736,49.97,91.5" transform="translate(1440.965 -6942.207)" fill="none" stroke="#766be1" stroke-linecap="round" stroke-miterlimit="10" stroke-width="6"/>
    </g>
  </g>
</svg>
