<svg xmlns="http://www.w3.org/2000/svg" width="100" height="82.305" viewBox="0 0 100 82.305">
  <path id="pure_ico3" d="M118.929-791.8l13.155-13.155a4.468,4.468,0,0,1,3.26-1.4,4.468,4.468,0,0,1,3.26,1.4,4.533,4.533,0,0,1,1.4,3.318,4.533,4.533,0,0,1-1.4,3.318l-16.414,16.414a4.533,4.533,0,0,1-3.318,1.4,4.533,4.533,0,0,1-3.318-1.4l-6.519-6.636a4.467,4.467,0,0,1-1.4-3.26,4.468,4.468,0,0,1,1.4-3.26,4.266,4.266,0,0,1,3.26-1.339,4.911,4.911,0,0,1,3.26,1.339ZM86.566-800.535ZM71.781-769.453Q63.4-777.02,57.4-782.957a100.474,100.474,0,0,1-9.9-11.176,40.91,40.91,0,0,1-5.7-10.128A29.352,29.352,0,0,1,40-814.505a24.613,24.613,0,0,1,7.334-18.219A24.91,24.91,0,0,1,65.611-840a26.864,26.864,0,0,1,11.525,2.561,27.611,27.611,0,0,1,9.43,7.218A27.611,27.611,0,0,1,96-837.439,26.864,26.864,0,0,1,107.52-840q9.43,0,15.832,5.3a26.483,26.483,0,0,1,8.731,13.329h-9.9a14.729,14.729,0,0,0-6.17-6.985,16.894,16.894,0,0,0-8.5-2.328,16.694,16.694,0,0,0-10.244,3.2,37.323,37.323,0,0,0-8.033,8.44H83.888a32.772,32.772,0,0,0-8.207-8.44,17.252,17.252,0,0,0-10.07-3.2,16.067,16.067,0,0,0-11.467,4.6,15.315,15.315,0,0,0-4.831,11.583,20.381,20.381,0,0,0,1.63,7.8,38.75,38.75,0,0,0,5.821,9.139A136.381,136.381,0,0,0,68.172-785.46q7.218,6.927,18.393,16.705,3.027-2.677,7.1-6.17t6.519-5.821l1.048,1.048,2.27,2.27,2.27,2.27,1.048,1.048q-2.561,2.328-6.519,5.762t-6.985,6.112l-3.609,3.26a4.273,4.273,0,0,1-3.143,1.281,4.273,4.273,0,0,1-3.143-1.281Z" transform="translate(-40 840)" fill="#fff"/>
</svg>
