<svg xmlns="http://www.w3.org/2000/svg" width="80" height="100" viewBox="0 0 80 100">
  <path id="pure_ico4" d="M164-855a17.034,17.034,0,0,1-2.937-4.625A13.6,13.6,0,0,1,160-865a14.465,14.465,0,0,1,4.375-10.625A14.465,14.465,0,0,1,175-880a14.465,14.465,0,0,1,10.625,4.375A14.465,14.465,0,0,1,190-865a13.6,13.6,0,0,1-1.062,5.375A17.035,17.035,0,0,1,186-855Zm26,75a19.259,19.259,0,0,1-14.125-5.875A19.259,19.259,0,0,1,170-800h-.5a4.7,4.7,0,0,1-3.375-1.312A5.246,5.246,0,0,1,164.5-804.5l-4-40a4.7,4.7,0,0,1,1.25-3.875A4.891,4.891,0,0,1,165.5-850h19a4.891,4.891,0,0,1,3.75,1.625,4.7,4.7,0,0,1,1.25,3.875l-4,40a5.246,5.246,0,0,1-1.625,3.188A4.7,4.7,0,0,1,180.5-800H180a9.629,9.629,0,0,0,2.938,7.062A9.629,9.629,0,0,0,190-790a9.629,9.629,0,0,0,7.063-2.938A9.629,9.629,0,0,0,200-800v-60a19.259,19.259,0,0,1,5.875-14.125A19.258,19.258,0,0,1,220-880a19.258,19.258,0,0,1,14.125,5.875A19.258,19.258,0,0,1,240-860v75a4.838,4.838,0,0,1-1.437,3.562A4.838,4.838,0,0,1,235-780a4.838,4.838,0,0,1-3.562-1.438A4.838,4.838,0,0,1,230-785v-75a9.63,9.63,0,0,0-2.937-7.063A9.629,9.629,0,0,0,220-870a9.629,9.629,0,0,0-7.062,2.937A9.63,9.63,0,0,0,210-860v60a19.259,19.259,0,0,1-5.875,14.125A19.259,19.259,0,0,1,190-780Zm-16-30h2l3-30h-8Zm2-30h0Z" transform="translate(-160 880)" fill="#fff"/>
</svg>
