<svg xmlns="http://www.w3.org/2000/svg" width="100" height="100" viewBox="0 0 100 100">
  <path id="pure_ico2" d="M116.125-827.875l7.25,9.875a2.376,2.376,0,0,0,2,1,2.376,2.376,0,0,0,2-1l7.25-9.875L141.75-818a2.436,2.436,0,0,0,2.063,1,2.436,2.436,0,0,0,2.063-1l11.25-15.375a4.935,4.935,0,0,0,.938-3.75,4.786,4.786,0,0,0-2.062-3.25,4.934,4.934,0,0,0-3.75-.937A4.786,4.786,0,0,0,149-839.25l-5.25,7.125L136.625-842a2.436,2.436,0,0,0-2.062-1,2.436,2.436,0,0,0-2.062,1l-7.125,9.875L118.125-842a2.376,2.376,0,0,0-2-1,2.376,2.376,0,0,0-2,1l-11.25,15.375a4.935,4.935,0,0,0-.937,3.75,4.786,4.786,0,0,0,2.063,3.25,4.935,4.935,0,0,0,3.75.938A4.786,4.786,0,0,0,111-820.75ZM130-780a48.688,48.688,0,0,1-19.5-3.937,50.493,50.493,0,0,1-15.875-10.687A50.493,50.493,0,0,1,83.938-810.5,48.688,48.688,0,0,1,80-830a48.688,48.688,0,0,1,3.938-19.5,50.492,50.492,0,0,1,10.688-15.875A50.493,50.493,0,0,1,110.5-876.062,48.688,48.688,0,0,1,130-880a48.688,48.688,0,0,1,19.5,3.938,50.493,50.493,0,0,1,15.875,10.688A50.492,50.492,0,0,1,176.062-849.5,48.688,48.688,0,0,1,180-830a48.688,48.688,0,0,1-3.937,19.5,50.493,50.493,0,0,1-10.687,15.875A50.493,50.493,0,0,1,149.5-783.937,48.688,48.688,0,0,1,130-780Zm0-10a38.6,38.6,0,0,0,28.375-11.625A38.6,38.6,0,0,0,170-830a38.6,38.6,0,0,0-11.625-28.375A38.6,38.6,0,0,0,130-870a38.6,38.6,0,0,0-28.375,11.625A38.6,38.6,0,0,0,90-830a38.6,38.6,0,0,0,11.625,28.375A38.6,38.6,0,0,0,130-790ZM130-830Z" transform="translate(-80 880)" fill="#fff"/>
</svg>
